<svg width="20" height="21" viewBox="0 0 20 21" fill="none" xmlns="http://www.w3.org/2000/svg">
<g clip-path="url(#clip0_1079_2150)">
<path d="M11.6667 7.50553H13.3334V9.1722C13.3334 9.63053 13.7084 10.0055 14.1667 10.0055C14.6251 10.0055 15.0001 9.63053 15.0001 9.1722V7.50553H16.6667C17.1251 7.50553 17.5001 7.13053 17.5001 6.6722C17.5001 6.21387 17.1251 5.83887 16.6667 5.83887H15.0001V4.1722C15.0001 3.71387 14.6251 3.33887 14.1667 3.33887C13.7084 3.33887 13.3334 3.71387 13.3334 4.1722V5.83887H11.6667C11.2084 5.83887 10.8334 6.21387 10.8334 6.6722C10.8334 7.13053 11.2084 7.50553 11.6667 7.50553ZM16.0084 13.5639L13.8917 13.3222C13.3834 13.2639 12.8834 13.4389 12.5251 13.7972L10.9917 15.3305C8.6334 14.1305 6.70007 12.2055 5.50007 9.83887L7.04173 8.2972C7.40007 7.93887 7.57507 7.43053 7.51673 6.93053L7.27507 4.83053C7.1834 3.98887 6.46673 3.3472 5.62507 3.3472H4.1834C3.24173 3.3472 2.4584 4.13053 2.51673 5.0722C2.9584 12.1889 8.65007 17.8722 15.7584 18.3139C16.7001 18.3722 17.4834 17.5889 17.4834 16.6472V15.2055C17.4917 14.3722 16.8501 13.6555 16.0084 13.5639Z" fill="white"/>
</g>
<defs>
<clipPath id="clip0_1079_2150">
<rect width="20" height="20" fill="white" transform="translate(0 0.838867)"/>
</clipPath>
</defs>
</svg>
