<svg width="41" height="41" viewBox="0 0 41 41" fill="none" xmlns="http://www.w3.org/2000/svg">
<path d="M7.375 8C6.21468 8 5.10188 8.46094 4.28141 9.28141C3.46094 10.1019 3 11.2147 3 12.375V28.625C3 31.04 4.96 33 7.375 33H13.0875C12.8461 31.2954 13.1085 29.5573 13.8425 28C12.9844 28.013 12.1282 27.9156 11.295 27.71L11.1625 27.6775C10.2588 27.4516 9.45667 26.93 8.88361 26.1957C8.31055 25.4613 7.99952 24.5565 8 23.625C8 22.4375 8.96 21.4775 10.145 21.4775H17.1625C18.2525 21.4775 19.155 22.2925 19.2875 23.3475C20.0708 23.1175 20.8917 23.0008 21.75 22.9975H31.75C34.2 22.9975 36.4125 24.0025 38 25.6225V12.3725C37.9993 11.2126 37.5381 10.1005 36.7177 9.28052C35.8973 8.46059 34.7849 8 33.625 8H7.375ZM17.045 16.3925C17.0573 16.8456 16.9787 17.2966 16.8138 17.7188C16.6489 18.141 16.4011 18.5258 16.0849 18.8507C15.7688 19.1755 15.3908 19.4337 14.9732 19.61C14.5557 19.7863 14.107 19.8771 13.6537 19.8771C13.2005 19.8771 12.7518 19.7863 12.3343 19.61C11.9167 19.4337 11.5387 19.1755 11.2226 18.8507C10.9064 18.5258 10.6586 18.141 10.4937 17.7188C10.3288 17.2966 10.2502 16.8456 10.2625 16.3925C10.2865 15.509 10.6543 14.6698 11.2877 14.0534C11.921 13.437 12.7699 13.0921 13.6537 13.0921C14.5376 13.0921 15.3865 13.437 16.0198 14.0534C16.6532 14.6698 17.021 15.509 17.045 16.3925ZM23 16.75C23 16.4185 23.1317 16.1005 23.3661 15.8661C23.6005 15.6317 23.9185 15.5 24.25 15.5H31.75C32.0815 15.5 32.3995 15.6317 32.6339 15.8661C32.8683 16.1005 33 16.4185 33 16.75C33 17.0815 32.8683 17.3995 32.6339 17.6339C32.3995 17.8683 32.0815 18 31.75 18H24.25C23.9185 18 23.6005 17.8683 23.3661 17.6339C23.1317 17.3995 23 17.0815 23 16.75ZM21.75 25.5C20.0924 25.5 18.5027 26.1585 17.3306 27.3306C16.1585 28.5027 15.5 30.0924 15.5 31.75C15.5 33.4076 16.1585 34.9973 17.3306 36.1694C18.5027 37.3415 20.0924 38 21.75 38H23C23.3315 38 23.6495 37.8683 23.8839 37.6339C24.1183 37.3995 24.25 37.0815 24.25 36.75C24.25 36.4185 24.1183 36.1005 23.8839 35.8661C23.6495 35.6317 23.3315 35.5 23 35.5H21.75C20.7554 35.5 19.8016 35.1049 19.0983 34.4017C18.3951 33.6984 18 32.7446 18 31.75C18 30.7554 18.3951 29.8016 19.0983 29.0983C19.8016 28.3951 20.7554 28 21.75 28H23C23.3315 28 23.6495 27.8683 23.8839 27.6339C24.1183 27.3995 24.25 27.0815 24.25 26.75C24.25 26.4185 24.1183 26.1005 23.8839 25.8661C23.6495 25.6317 23.3315 25.5 23 25.5H21.75ZM30.5 25.5C30.1685 25.5 29.8505 25.6317 29.6161 25.8661C29.3817 26.1005 29.25 26.4185 29.25 26.75C29.25 27.0815 29.3817 27.3995 29.6161 27.6339C29.8505 27.8683 30.1685 28 30.5 28H31.75C32.7446 28 33.6984 28.3951 34.4017 29.0983C35.1049 29.8016 35.5 30.7554 35.5 31.75C35.5 32.7446 35.1049 33.6984 34.4017 34.4017C33.6984 35.1049 32.7446 35.5 31.75 35.5H30.5C30.1685 35.5 29.8505 35.6317 29.6161 35.8661C29.3817 36.1005 29.25 36.4185 29.25 36.75C29.25 37.0815 29.3817 37.3995 29.6161 37.6339C29.8505 37.8683 30.1685 38 30.5 38H31.75C33.4076 38 34.9973 37.3415 36.1694 36.1694C37.3415 34.9973 38 33.4076 38 31.75C38 30.0924 37.3415 28.5027 36.1694 27.3306C34.9973 26.1585 33.4076 25.5 31.75 25.5H30.5ZM21.75 30.5C21.4185 30.5 21.1005 30.6317 20.8661 30.8661C20.6317 31.1005 20.5 31.4185 20.5 31.75C20.5 32.0815 20.6317 32.3995 20.8661 32.6339C21.1005 32.8683 21.4185 33 21.75 33H31.75C32.0815 33 32.3995 32.8683 32.6339 32.6339C32.8683 32.3995 33 32.0815 33 31.75C33 31.4185 32.8683 31.1005 32.6339 30.8661C32.3995 30.6317 32.0815 30.5 31.75 30.5H21.75Z" fill="#DBA73B"/>
</svg>
