<svg width="105" height="34" viewBox="0 0 105 34" fill="none" xmlns="http://www.w3.org/2000/svg">
<path d="M45.6635 33.2654H37.2984L42.5929 1.29346L50.9561 1.29346L45.6635 33.2654Z" fill="white"/>
<path d="M76.0349 2.0768C74.3867 1.42987 71.7724 0.714844 68.5366 0.714844C60.28 0.714844 54.4545 5.06742 54.4079 11.2927C54.3301 15.8836 58.5578 18.4335 61.7197 19.9657C64.9524 21.5301 66.0487 22.5516 66.046 23.9457C66.0093 26.087 63.4261 27.0744 61.0189 27.0744C57.6799 27.0744 55.8918 26.5655 53.1769 25.3738L52.0758 24.8631L50.8927 32.0398C52.8523 32.9232 56.4634 33.7083 60.2157 33.7423C68.989 33.7423 74.7091 29.4559 74.7909 22.8239C74.8305 19.1845 72.601 16.3944 67.7873 14.1169C64.8663 12.6528 63.0772 11.6672 63.0801 10.171C63.1172 8.80901 64.601 7.4168 67.9017 7.4168C70.6209 7.34871 72.6173 7.99375 74.1277 8.64068L74.8848 8.97928L76.0349 2.0768Z" fill="white"/>
<path d="M87.1044 21.9385C87.7968 20.1017 90.4607 12.993 90.4607 12.993C90.4262 13.0611 91.1513 11.1222 91.5669 9.93243L92.1471 12.6885C92.1471 12.6885 93.7145 20.34 94.0559 21.9385C92.749 21.9385 88.7576 21.9385 87.1044 21.9385ZM97.4675 1.29346L91.0001 1.29346C89.0044 1.29346 87.4879 1.87229 86.6228 3.94738L74.1458 33.2654H82.9207C82.9207 33.2654 84.3711 29.3195 84.6847 28.4683C85.6471 28.4683 94.1828 28.4683 95.4208 28.4683C95.6578 29.5919 96.4084 33.2654 96.4084 33.2654H104.152L97.4675 1.29346Z" fill="white"/>
<path d="M30.3812 1.29346L22.1494 23.0961L21.2644 18.6735C19.7589 13.5719 15.0225 8.02947 9.72883 5.2734L17.1758 33.2313H26.0177L39.2231 1.29346L30.3812 1.29346Z" fill="white"/>
<path d="M14.5908 1.29346L1.13781 1.29346L0.998986 1.94038C11.4882 4.59241 18.4254 10.9879 21.2671 18.6754L18.3702 3.98144C17.8939 1.9404 16.4141 1.36155 14.5908 1.29346Z" fill="white"/>
</svg>
