<svg width="25" height="24" viewBox="0 0 25 24" fill="none" xmlns="http://www.w3.org/2000/svg">
<path fill-rule="evenodd" clip-rule="evenodd" d="M11.0985 0.0680857C7.40613 0.516115 4.12607 2.64798 2.19089 5.85755C0.494627 8.67088 0.046504 12.1674 0.974063 15.3516C2.14223 19.3617 5.40481 22.5456 9.42536 23.5992C11.1003 24.0381 12.8924 24.1187 14.5614 23.8303C19.3764 22.9981 23.2609 19.2362 24.2622 14.4356C24.4468 13.5509 24.4812 13.1674 24.4812 11.9981C24.4812 10.8289 24.4468 10.4454 24.2622 9.56066C23.9522 8.07421 23.3678 6.67195 22.5415 5.43183C22.0007 4.62024 21.6172 4.14821 20.9859 3.51695C19.3138 1.84478 17.2017 0.70324 14.9024 0.22896C13.8037 0.00236722 12.1994 -0.0655075 11.0985 0.0680857ZM18.2937 7.84912C18.7417 8.03324 18.9837 8.61037 18.8102 9.08019C18.7389 9.27313 18.2801 9.75186 15.3702 12.6693C13.3252 14.7198 11.9392 16.0741 11.825 16.1338C11.5875 16.2579 11.187 16.2649 10.9578 16.1491C10.7397 16.0389 7.42277 12.735 7.26705 12.4729C6.91338 11.8774 7.32762 11.0817 8.02127 11.0241C8.49827 10.9846 8.51622 10.9977 10.0091 12.4835L11.3806 13.8485L14.345 10.8891C15.9754 9.2615 17.3621 7.90284 17.4266 7.86988C17.6984 7.73095 17.9894 7.72396 18.2937 7.84912Z" fill="#12A58C"/>
</svg>
