<svg width="15" height="15" viewBox="0 0 15 15" fill="none" xmlns="http://www.w3.org/2000/svg">
<path fill-rule="evenodd" clip-rule="evenodd" d="M6.62404 0.0425536C4.31633 0.322572 2.26629 1.65499 1.0568 3.66097C-0.00335789 5.4193 -0.283435 7.60463 0.296289 9.59476C1.02639 12.1011 3.06551 14.091 5.57835 14.7495C6.62521 15.0238 7.74526 15.0742 8.7884 14.8939C11.7978 14.3738 14.2256 12.0226 14.8514 9.02227C14.9667 8.4693 14.9883 8.22965 14.9883 7.49884C14.9883 6.76804 14.9667 6.52839 14.8514 5.97541C14.6576 5.04638 14.2924 4.16997 13.7759 3.39489C13.4379 2.88765 13.1982 2.59263 12.8037 2.19809C11.7586 1.15299 10.4385 0.439525 9.00153 0.1431C8.31484 0.00147951 7.31213 -0.0409422 6.62404 0.0425536ZM11.1211 4.9057C11.4011 5.02078 11.5523 5.38148 11.4439 5.67512C11.3993 5.79571 11.1125 6.09491 9.29388 7.91834C8.01572 9.19987 7.14951 10.0463 7.07814 10.0836C6.92969 10.1612 6.67935 10.1656 6.53615 10.0932C6.3998 10.0243 4.32673 7.95939 4.22941 7.79556C4.00837 7.42337 4.26726 6.92603 4.70079 6.89009C4.99892 6.86536 5.01014 6.87359 5.94318 7.80218L6.80041 8.6553L8.65313 6.80571C9.67213 5.78844 10.5388 4.93927 10.5791 4.91868C10.749 4.83184 10.9309 4.82748 11.1211 4.9057Z" fill="#12A58C"/>
</svg>
