<svg width="41" height="41" viewBox="0 0 41 41" fill="none" xmlns="http://www.w3.org/2000/svg">
<g clip-path="url(#clip0_437_8802)">
<path d="M26.3333 9.66667C28.1667 9.66667 29.6667 8.16667 29.6667 6.33333C29.6667 4.5 28.1667 3 26.3333 3C24.5 3 23 4.5 23 6.33333C23 8.16667 24.5 9.66667 26.3333 9.66667ZM8.83333 20.5C4.16667 20.5 0.5 24.1667 0.5 28.8333C0.5 33.5 4.16667 37.1667 8.83333 37.1667C13.5 37.1667 17.1667 33.5 17.1667 28.8333C17.1667 24.1667 13.5 20.5 8.83333 20.5ZM8.83333 34.6667C5.66667 34.6667 3 32 3 28.8333C3 25.6667 5.66667 23 8.83333 23C12 23 14.6667 25.6667 14.6667 28.8333C14.6667 32 12 34.6667 8.83333 34.6667ZM18.5 18L22.5 14L23.8333 15.3333C26 17.5 28.8333 18.8333 32.3333 18.8333V15.5C29.8333 15.5 27.8333 14.5 26.3333 13L23.1667 9.83333C22.3333 9.16667 21.5 8.83333 20.5 8.83333C19.5 8.83333 18.6667 9.16667 18.1667 9.83333L13.5 14.5C12.8333 15.1667 12.5 16 12.5 16.8333C12.5 17.8333 12.8333 18.6667 13.5 19.1667L18.8333 23.8333V32.1667H22.1667V21.8333L18.5 18ZM32.1667 20.5C27.5 20.5 23.8333 24.1667 23.8333 28.8333C23.8333 33.5 27.5 37.1667 32.1667 37.1667C36.8333 37.1667 40.5 33.5 40.5 28.8333C40.5 24.1667 36.8333 20.5 32.1667 20.5ZM32.1667 34.6667C29 34.6667 26.3333 32 26.3333 28.8333C26.3333 25.6667 29 23 32.1667 23C35.3333 23 38 25.6667 38 28.8333C38 32 35.3333 34.6667 32.1667 34.6667Z" fill="#DBA73B"/>
</g>
<defs>
<clipPath id="clip0_437_8802">
<rect width="40" height="40" fill="white" transform="translate(0.5 0.5)"/>
</clipPath>
</defs>
</svg>
