<svg width="61" height="60" viewBox="0 0 61 60" fill="none" xmlns="http://www.w3.org/2000/svg">
<g clip-path="url(#clip0_199_6048)">
<path d="M30.5 0C13.9424 0 0.5 13.4424 0.5 30C0.5 46.5576 13.9424 60 30.5 60C47.0276 60 60.4466 46.6056 60.4952 30.0888C60.4983 30.0593 60.4999 30.0297 60.5 30C60.5 29.9734 60.4988 29.9467 60.4964 29.9202C60.4532 13.3992 47.0312 0 30.5 0ZM35.3798 2.229C35.8138 2.30409 36.2459 2.38971 36.6758 2.4858C37.1222 2.865 37.5026 3.1458 37.571 2.6928C47.7842 5.3262 55.7408 13.5342 58.028 23.883C57.5756 26.4546 59.0288 29.6424 58.34 31.6206C58.076 30.7044 58.3232 30.1122 57.7058 30.8742C56.513 28.7838 56.6816 24.9456 54.5636 24.108C54.0104 22.038 52.9016 22.2948 50.7398 22.7166C47.321 22.1538 52.7618 23.8266 51.1688 25.5486C50.7902 27.3906 49.1174 29.1192 47.3978 30.1326C46.1792 30.8706 42.8654 33.4632 46.103 32.2626C47.3192 32.3484 48.275 30.3678 48.6938 32.3916C48.017 34.7976 47.1578 37.2858 45.107 38.8758C43.769 40.0008 42.3872 42.2994 41.9942 43.1058C42.374 43.7226 41.6402 45.4638 42.3302 45.8976C43.5014 49.5792 38.2706 49.2636 38.426 52.1592C36.7124 53.7372 35.0342 56.052 32.2898 56.2272C28.7636 57.6708 27.056 53.9616 25.5818 51.519C22.9208 49.6416 26.2352 47.367 24.914 45.1866C24.4082 43.0038 21.3134 41.8476 22.3724 39.45C23.387 37.443 19.6244 38.2776 19.268 36.273C17.3384 35.6562 15.7796 37.4922 13.7216 36.429C10.6064 36.7494 10.2344 32.709 8.6486 31.0362C8.5082 28.4622 9.3986 25.986 10.1264 23.5122C10.658 22.917 11.1044 22.4262 11.3618 22.0302C12.7622 20.0502 14.1242 19.3122 14.8178 18.2778C15.539 17.832 16.2968 17.3358 17.5046 16.965C19.7252 17.109 22.0976 16.1412 24.4034 16.161C26.1926 16.4622 23.7128 19.2732 26.2958 18.987C27.0356 19.038 28.823 21.4266 29.345 20.0802C30.5162 17.226 33.2816 20.9886 35.216 19.8738C37.253 20.9814 38.876 18.2124 37.409 17.0898C37.4594 18.3246 36.1586 18.4416 36.1082 17.2884C34.6382 16.4508 32.5586 19.212 31.2152 17.4642C29.2832 16.5 29.6312 13.755 27.5042 13.0854C27.0332 12.789 26.7872 12.6492 26.699 12.6246C26.3168 12.5184 28.901 14.5548 29.0486 15.1878C27.9434 14.6088 27.3878 17.9322 26.4836 17.244C25.1852 16.1556 25.6694 15.7692 27.1772 15.546C28.076 15.5262 23.9732 11.9964 24.728 15.216C22.973 16.6524 24.128 12.8562 24.9938 13.0032C23.189 12.918 21.9698 13.5702 20.48 14.706C19.8548 15.957 18.6488 16.8156 17.339 16.9158C17.0203 16.8862 16.7017 16.8554 16.3832 16.8234C16.4432 16.4376 16.2332 16.1142 15.614 16.0554C16.1606 13.8372 17.3642 11.523 19.976 12.744C20.7176 11.1306 19.4924 10.332 21.107 9.6C18.7412 10.641 21.5852 8.0022 19.553 9.0222C17.621 8.6748 21.4838 7.167 21.6248 6.3834C24.191 5.3052 22.6052 6.6306 22.8938 8.0694C22.8704 10.0338 24.5204 8.1138 25.682 7.7124C25.6142 6.5844 28.1366 6.2124 25.8644 6.6246C24.2684 5.091 28.517 4.0734 29.1884 3.1278C31.427 1.8258 34.7888 4.3116 35.6384 3.0996C37.8422 3.2466 35.7626 3.0666 35.3798 2.229ZM23.7434 2.619C22.7246 2.9796 21.683 3.2742 20.6426 3.5718C21.6569 3.19454 22.6923 2.87641 23.7434 2.619ZM21.6014 3.7314C22.487 3.7146 23.2136 4.0986 21.4724 4.5834C21.1022 4.6746 20.7092 4.7772 20.3312 4.638C20.1272 3.9996 20.9126 3.744 21.6014 3.7314ZM30.0692 5.9862C29.858 6.0168 29.552 6.1962 29.1356 6.5988C29.051 7.6668 26.3738 8.0544 28.7006 7.8138C30.1202 8.496 30.986 5.8512 30.0692 5.9862ZM42.9632 11.223C42.4412 11.1612 40.8356 12.822 42.8378 13.485C44.6618 14.0406 42.911 16.7712 45.7118 16.0362C45.9068 14.7018 42.7538 12.6072 42.9494 11.9604C43.19 11.4558 43.1372 11.244 42.9632 11.223ZM34.8398 11.7468C34.0034 12.507 32.7866 14.775 35.2658 14.0124C36.0956 12.933 40.8758 15.051 39.02 13.1784C37.5032 12.0474 35.8802 13.1406 34.8398 11.7468ZM10.6016 20.2524C10.7828 20.2794 10.9988 20.4624 11.2646 20.5584L11.1254 20.9892C10.8974 20.9172 10.5794 20.8692 10.1528 20.8464C10.2806 20.3484 10.4252 20.226 10.6016 20.2524ZM45.629 20.5572C44.8832 21.2184 47.459 22.9248 48.0782 23.3292L48.44 23.0742C49.208 21.7482 46.0364 21.9726 45.629 20.5572ZM38.1068 22.374C38.0456 23.4822 39.2534 24.4824 39.7484 25.5792C40.5356 27.1608 41.456 29.142 42.5702 29.9208C42.7064 30.2016 43.3724 30.9894 43.7126 30.5568C42.8792 29.4018 42.8384 27.9324 41.5526 27.018C40.6178 25.416 39.5696 23.3718 38.1068 22.374ZM46.8584 45.7164C47.4344 45.7554 46.7024 48.8892 45.821 49.3152C45.0518 50.2308 43.8392 52.8522 42.4088 52.2012C42.5306 49.5894 44.1704 47.778 46.2362 46.2552C46.5224 45.8634 46.7252 45.7074 46.8584 45.7164Z" fill="#DBA73B"/>
</g>
<defs>
<clipPath id="clip0_199_6048">
<rect width="60" height="60" fill="white" transform="translate(0.5)"/>
</clipPath>
</defs>
</svg>
