<svg width="124" height="28" viewBox="0 0 124 28" fill="none" xmlns="http://www.w3.org/2000/svg">
<path d="M10.0015 27.1913C15.2204 27.1913 19.5382 24.5638 19.5382 19.1286C19.5382 13.477 14.7157 12.2895 10.9007 11.3162C8.20108 10.6693 6.04221 10.1286 6.04221 8.36623C6.04221 6.71003 7.80455 5.95302 9.5689 5.95302C11.6196 5.95302 13.42 6.96236 13.42 9.15728H18.7832C18.7832 4.11858 15.5088 1.02246 9.71309 1.02246C4.13367 1.02246 0.570929 3.7581 0.570929 8.58252C0.570929 14.0157 5.17706 15.1332 8.99213 16.0685C11.7278 16.6793 14.0328 17.22 14.0328 19.2006C14.0328 21.0711 12.0162 22.1506 9.96543 22.1506C7.73246 22.1506 5.71778 20.963 5.71778 18.5518H0.210449C0.210449 23.951 4.20576 27.1913 10.0015 27.1913Z" fill="#121933"/>
<path d="M10.0015 27.1913C15.2204 27.1913 19.5382 24.5638 19.5382 19.1286C19.5382 13.477 14.7157 12.2895 10.9007 11.3162C8.20108 10.6693 6.04221 10.1286 6.04221 8.36623C6.04221 6.71003 7.80455 5.95302 9.5689 5.95302C11.6196 5.95302 13.42 6.96236 13.42 9.15728H18.7832C18.7832 4.11858 15.5088 1.02246 9.71309 1.02246C4.13367 1.02246 0.570929 3.7581 0.570929 8.58252C0.570929 14.0157 5.17706 15.1332 8.99213 16.0685C11.7278 16.6793 14.0328 17.22 14.0328 19.2006C14.0328 21.0711 12.0162 22.1506 9.96543 22.1506C7.73246 22.1506 5.71778 20.963 5.71778 18.5518H0.210449C0.210449 23.951 4.20576 27.1913 10.0015 27.1913Z" fill="#121933"/>
<path d="M32.7842 27.2648C38.7962 27.2648 43.2941 22.8369 43.2941 16.9691C43.2941 11.1033 38.7962 6.71143 32.7842 6.71143C26.7742 6.71143 22.2742 11.1033 22.2742 16.9691C22.2742 22.8369 26.7742 27.2648 32.7842 27.2648ZM32.7842 22.2962C29.7601 22.2962 27.6013 20.1373 27.6013 16.9691C27.6013 13.8389 29.7601 11.642 32.7842 11.642C35.8082 11.642 37.967 13.8389 37.967 16.9691C37.967 20.1373 35.8082 22.2962 32.7842 22.2962Z" fill="#121933"/>
<path d="M32.7842 27.2648C38.7962 27.2648 43.2941 22.8369 43.2941 16.9691C43.2941 11.1033 38.7962 6.71143 32.7842 6.71143C26.7742 6.71143 22.2742 11.1033 22.2742 16.9691C22.2742 22.8369 26.7742 27.2648 32.7842 27.2648ZM32.7842 22.2962C29.7601 22.2962 27.6013 20.1373 27.6013 16.9691C27.6013 13.8389 29.7601 11.642 32.7842 11.642C35.8082 11.642 37.967 13.8389 37.967 16.9691C37.967 20.1373 35.8082 22.2962 32.7842 22.2962Z" fill="#121933"/>
<path d="M47.0742 26.6867H52.3292V0.267578H47.0742V26.6867Z" fill="#121933"/>
<path d="M47.0742 26.6867H52.3292V0.267578H47.0742V26.6867Z" fill="#121933"/>
<path d="M73.2053 7.25215L72.6666 9.08659C70.9743 7.61062 68.7794 6.71143 66.2581 6.71143C60.4283 6.71143 56.0725 11.1033 56.0725 16.9691C56.0725 22.8369 60.4283 27.2648 66.2581 27.2648C68.7434 27.2648 70.9022 26.3996 72.5584 24.9237L73.0251 26.688H77.1285V7.25215H73.2053ZM66.6906 22.2962C63.6306 22.2962 61.3996 19.9931 61.3996 16.9691C61.3996 13.911 63.6306 11.642 66.6906 11.642C69.7507 11.642 71.9817 13.911 71.9817 16.9691C71.9817 20.0291 69.7507 22.2962 66.6906 22.2962Z" fill="#121933"/>
<path d="M73.2053 7.25215L72.6666 9.08659C70.9743 7.61062 68.7794 6.71143 66.2581 6.71143C60.4283 6.71143 56.0725 11.1033 56.0725 16.9691C56.0725 22.8369 60.4283 27.2648 66.2581 27.2648C68.7434 27.2648 70.9022 26.3996 72.5584 24.9237L73.0251 26.688H77.1285V7.25215H73.2053ZM66.6906 22.2962C63.6306 22.2962 61.3996 19.9931 61.3996 16.9691C61.3996 13.911 63.6306 11.642 66.6906 11.642C69.7507 11.642 71.9817 13.911 71.9817 16.9691C71.9817 20.0291 69.7507 22.2962 66.6906 22.2962Z" fill="#121933"/>
<path d="M91.2382 27.2648C96.3149 27.2648 100.31 23.9524 101.209 19.0579H95.9184C95.0192 21.1446 93.363 22.2962 91.2382 22.2962C88.4305 22.2962 86.2355 19.957 86.2355 16.9691C86.2355 13.9471 88.3944 11.642 91.2382 11.642C93.327 11.642 95.0893 12.7935 95.9184 14.7021H101.137C100.202 9.91569 96.3149 6.71143 91.2742 6.71143C85.3724 6.71143 80.9084 11.1033 80.9084 16.933C80.9084 22.7648 85.3724 27.2648 91.2382 27.2648Z" fill="#121933"/>
<path d="M91.2382 27.2648C96.3149 27.2648 100.31 23.9524 101.209 19.0579H95.9184C95.0192 21.1446 93.363 22.2962 91.2382 22.2962C88.4305 22.2962 86.2355 19.957 86.2355 16.9691C86.2355 13.9471 88.3944 11.642 91.2382 11.642C93.327 11.642 95.0893 12.7935 95.9184 14.7021H101.137C100.202 9.91569 96.3149 6.71143 91.2742 6.71143C85.3724 6.71143 80.9084 11.1033 80.9084 16.933C80.9084 22.7648 85.3724 27.2648 91.2382 27.2648Z" fill="#121933"/>
<path d="M123.562 16.933C123.562 11.3176 119.459 6.71143 113.485 6.71143C107.725 6.71143 103.405 11.1393 103.405 16.9691C103.405 22.8008 107.761 27.2648 113.485 27.2648C118.019 27.2648 121.726 24.5652 123.13 20.3175H117.622C116.831 21.7214 115.319 22.5845 113.485 22.5845C110.927 22.5845 109.201 21.1086 108.732 18.445H123.454C123.526 17.9424 123.562 17.4377 123.562 16.933ZM113.485 11.2114C115.86 11.2114 117.552 12.5071 118.307 14.8823H108.877C109.489 12.5792 111.144 11.2114 113.485 11.2114Z" fill="#121933"/>
<path d="M123.562 16.933C123.562 11.3176 119.459 6.71143 113.485 6.71143C107.725 6.71143 103.405 11.1393 103.405 16.9691C103.405 22.8008 107.761 27.2648 113.485 27.2648C118.019 27.2648 121.726 24.5652 123.13 20.3175H117.622C116.831 21.7214 115.319 22.5845 113.485 22.5845C110.927 22.5845 109.201 21.1086 108.732 18.445H123.454C123.526 17.9424 123.562 17.4377 123.562 16.933ZM113.485 11.2114C115.86 11.2114 117.552 12.5071 118.307 14.8823H108.877C109.489 12.5792 111.144 11.2114 113.485 11.2114Z" fill="#121933"/>
</svg>
