<svg width="42" height="42" viewBox="0 0 42 42" fill="none" xmlns="http://www.w3.org/2000/svg">
<circle cx="21" cy="21" r="21" fill="white"/>
<path d="M28.6381 30.1114C27.8055 31.4065 26.6639 32.5391 25.2847 33.449C26.0526 30.4683 25.4815 26.8967 20.386 24.3646L20.3856 24.369C18.6928 23.6203 16.7498 22.7037 14.9691 21.5501C11.6581 19.4062 10.7169 14.9543 12.9304 11.6858C13.748 10.4765 14.8421 9.41534 16.1491 8.55447C15.3812 11.5351 15.95 15.1065 21.0478 17.6389L21.0482 17.6344C22.741 18.3832 24.6861 19.2999 26.4668 20.4536C29.6978 22.5492 30.7209 26.8749 28.6381 30.1114Z" fill="#121933"/>
<path d="M22.5447 15.8233C24.6886 16.0342 26.5975 14.4672 26.8084 12.3234C27.0194 10.1795 25.4524 8.27059 23.3086 8.05966C21.1647 7.84873 19.2558 9.41568 19.0448 11.5595C18.8339 13.7034 20.4009 15.6123 22.5447 15.8233Z" fill="#DBA73B"/>
<path d="M17.929 33.6075C20.0729 33.8184 21.9818 32.2514 22.1927 30.1076C22.4037 27.9637 20.8367 26.0548 18.6928 25.8438C16.549 25.6329 14.64 27.1999 14.4291 29.3437C14.2182 31.4876 15.7851 33.3965 17.929 33.6075Z" fill="#DBA73B"/>
</svg>
