<svg width="41" height="37" viewBox="0 0 41 37" fill="none" xmlns="http://www.w3.org/2000/svg">
<path d="M13.9491 8.73402C15.1073 8.73402 16.2181 8.27392 17.0371 7.45495C17.856 6.63598 18.3161 5.52521 18.3161 4.36701C18.3161 3.20881 17.856 2.09804 17.0371 1.27907C16.2181 0.460094 15.1073 0 13.9491 0C12.7909 0 11.6802 0.460094 10.8612 1.27907C10.0422 2.09804 9.58212 3.20881 9.58212 4.36701C9.58212 5.52521 10.0422 6.63598 10.8612 7.45495C11.6802 8.27392 12.7909 8.73402 13.9491 8.73402ZM7.96196 15.2136C8.13019 15.0119 8.30647 14.817 8.49036 14.6295V33.8443C8.49002 34.4028 8.70371 34.9402 9.08748 35.346C9.47125 35.7518 9.99593 35.9951 10.5536 36.0259C11.1113 36.0566 11.6595 35.8725 12.0856 35.5114C12.5117 35.1503 12.7832 34.6397 12.8443 34.0845L13.7199 26.202H14.1784L15.054 34.0845C15.1151 34.6397 15.3866 35.1503 15.8126 35.5114C16.2387 35.8725 16.787 36.0566 17.3447 36.0259C17.9023 35.9951 18.427 35.7518 18.8108 35.346C19.1945 34.9402 19.4082 34.4028 19.4079 33.8443V18.9528C19.5716 18.0838 20.1841 16.825 21.1503 15.6426C22.0161 16.7071 22.598 17.8327 22.8229 18.6821C22.8 20.4845 21.349 27.2305 20.7529 29.9369C20.7201 30.0822 20.7177 30.2327 20.746 30.3789C20.7743 30.5251 20.8326 30.6638 20.9172 30.7863C21.0019 30.9089 21.111 31.0125 21.2378 31.0906C21.3645 31.1688 21.5061 31.2198 21.6536 31.2405C25.6855 31.794 29.1692 31.7929 33.1672 31.2842C33.9129 31.1892 34.3485 30.3627 34.0778 29.6607C33.2731 27.5722 31.963 23.2347 31.963 17.1165V13.922C32.3888 14.2495 32.8364 14.6797 33.2819 15.2136C34.4359 16.5968 35.152 18.1809 35.2459 19.1657C35.294 19.5925 35.5078 19.9834 35.8413 20.2541C36.1748 20.5248 36.6013 20.6536 37.0289 20.6128C37.4565 20.5719 37.8509 20.3648 38.1272 20.0359C38.4035 19.707 38.5395 19.2828 38.5059 18.8546C38.3279 16.9811 37.1958 14.7921 35.7973 13.1163C34.4391 11.4874 32.3921 9.82577 30.0961 9.82577H25.0435C23.6428 9.82577 22.313 10.388 21.1547 11.1883C20.0007 10.388 18.6742 9.82577 17.2768 9.82577H11.1477C8.85173 9.82577 6.80579 11.4874 5.44656 13.1163C4.04912 14.7921 2.91588 16.9811 2.73792 18.8546C2.70436 19.2828 2.84037 19.707 3.11665 20.0359C3.39293 20.3648 3.78736 20.5719 4.21494 20.6128C4.64253 20.6536 5.06903 20.5248 5.40253 20.2541C5.73604 19.9834 5.94985 19.5925 5.99789 19.1657C6.09178 18.1809 6.80797 16.5968 7.96305 15.2136" fill="#DBA73B"/>
<path d="M0.848633 23.4727C0.848633 22.7488 1.13619 22.0546 1.64805 21.5427C2.15991 21.0308 2.85414 20.7433 3.57801 20.7433C4.30189 20.7433 4.99612 21.0308 5.50798 21.5427C6.01983 22.0546 6.30739 22.7488 6.30739 23.4727V34.9361C6.30739 35.2256 6.19237 35.5033 5.98763 35.7081C5.78288 35.9128 5.50519 36.0278 5.21564 36.0278C4.92609 36.0278 4.6484 35.9128 4.44366 35.7081C4.23891 35.5033 4.12389 35.2256 4.12389 34.9361V23.4727C4.12389 23.3279 4.06638 23.189 3.96401 23.0867C3.86163 22.9843 3.72279 22.9268 3.57801 22.9268C3.43324 22.9268 3.29439 22.9843 3.19202 23.0867C3.08965 23.189 3.03214 23.3279 3.03214 23.4727V24.5786C3.03214 24.8682 2.91711 25.1459 2.71237 25.3506C2.50763 25.5553 2.22994 25.6704 1.94038 25.6704C1.65083 25.6704 1.37314 25.5553 1.1684 25.3506C0.963657 25.1459 0.848633 24.8682 0.848633 24.5786V23.4727ZM27.5966 8.73402C28.7548 8.73402 29.8655 8.27392 30.6845 7.45495C31.5035 6.63598 31.9636 5.52521 31.9636 4.36701C31.9636 3.20881 31.5035 2.09804 30.6845 1.27907C29.8655 0.460094 28.7548 0 27.5966 0C26.4384 0 25.3276 0.460094 24.5086 1.27907C23.6896 2.09804 23.2295 3.20881 23.2295 4.36701C23.2295 5.52521 23.6896 6.63598 24.5086 7.45495C25.3276 8.27392 26.4384 8.73402 27.5966 8.73402ZM37.4223 20.7433C36.6984 20.7433 36.0042 21.0308 35.4924 21.5427C34.9805 22.0546 34.6929 22.7488 34.6929 23.4727V24.5786C34.6929 24.8682 34.808 25.1459 35.0127 25.3506C35.2175 25.5553 35.4951 25.6704 35.7847 25.6704C36.0742 25.6704 36.3519 25.5553 36.5567 25.3506C36.7614 25.1459 36.8764 24.8682 36.8764 24.5786V23.4727C36.8764 23.3279 36.934 23.189 37.0363 23.0867C37.1387 22.9843 37.2775 22.9268 37.4223 22.9268C37.5671 22.9268 37.7059 22.9843 37.8083 23.0867C37.9107 23.189 37.9682 23.3279 37.9682 23.4727V34.9361C37.9682 35.2256 38.0832 35.5033 38.288 35.7081C38.4927 35.9128 38.7704 36.0278 39.06 36.0278C39.3495 36.0278 39.6272 35.9128 39.8319 35.7081C40.0367 35.5033 40.1517 35.2256 40.1517 34.9361V23.4727C40.1517 22.7488 39.8642 22.0546 39.3523 21.5427C38.8404 21.0308 38.1462 20.7433 37.4223 20.7433ZM22.1378 35.3597V32.9185C23.4376 33.0865 24.7449 33.1893 26.055 33.2264L25.3563 35.7898C25.2526 36.1733 25.0131 36.506 24.6824 36.7259C24.3516 36.9459 23.9522 37.0382 23.5585 36.9856C23.1648 36.9329 22.8036 36.739 22.5422 36.4399C22.2809 36.1408 22.1371 35.7569 22.1378 35.3597ZM29.8379 35.7898L29.1239 33.1729C30.4399 33.0898 31.7516 32.9496 33.0553 32.7526V35.3597C33.055 35.7562 32.9108 36.1391 32.6496 36.4374C32.3883 36.7356 32.0277 36.929 31.6347 36.9815C31.2417 37.0341 30.843 36.9422 30.5125 36.7231C30.1821 36.5039 29.9424 36.1723 29.8379 35.7898Z" fill="#DBA73B"/>
</svg>
