<svg width="133" height="30" viewBox="0 0 133 30" fill="none" xmlns="http://www.w3.org/2000/svg">
<path d="M10.485 29.3776C16.0738 29.3776 20.6976 26.5639 20.6976 20.7434C20.6976 14.6913 15.5334 13.4196 11.4479 12.3773C8.55698 11.6846 6.2451 11.1055 6.2451 9.21828C6.2451 7.44469 8.13235 6.63403 10.0218 6.63403C12.2178 6.63403 14.1458 7.71491 14.1458 10.0654H19.8891C19.8891 4.66957 16.3827 1.354 10.1762 1.354C4.20129 1.354 0.386029 4.28354 0.386029 9.4499C0.386029 15.2682 5.31863 16.4649 9.40411 17.4664C12.3336 18.1206 14.8021 18.6996 14.8021 20.8206C14.8021 22.8237 12.6425 23.9796 10.4464 23.9796C8.05515 23.9796 5.89767 22.7079 5.89767 20.1258H0C0 25.9076 4.27849 29.3776 10.485 29.3776Z" fill="white"/>
<path d="M10.485 29.3776C16.0738 29.3776 20.6976 26.5639 20.6976 20.7434C20.6976 14.6913 15.5334 13.4196 11.4479 12.3773C8.55698 11.6846 6.2451 11.1055 6.2451 9.21828C6.2451 7.44469 8.13235 6.63403 10.0218 6.63403C12.2178 6.63403 14.1458 7.71491 14.1458 10.0654H19.8891C19.8891 4.66957 16.3827 1.354 10.1762 1.354C4.20129 1.354 0.386029 4.28354 0.386029 9.4499C0.386029 15.2682 5.31863 16.4649 9.40411 17.4664C12.3336 18.1206 14.8021 18.6996 14.8021 20.8206C14.8021 22.8237 12.6425 23.9796 10.4464 23.9796C8.05515 23.9796 5.89767 22.7079 5.89767 20.1258H0C0 25.9076 4.27849 29.3776 10.485 29.3776Z" fill="white"/>
<path d="M34.8823 29.4549C41.3205 29.4549 46.1372 24.7132 46.1372 18.4295C46.1372 12.1479 41.3205 7.44482 34.8823 7.44482C28.4464 7.44482 23.6274 12.1479 23.6274 18.4295C23.6274 24.7132 28.4464 29.4549 34.8823 29.4549ZM34.8823 24.1342C31.644 24.1342 29.3321 21.8223 29.3321 18.4295C29.3321 15.0775 31.644 12.7248 34.8823 12.7248C38.1207 12.7248 40.4326 15.0775 40.4326 18.4295C40.4326 21.8223 38.1207 24.1342 34.8823 24.1342Z" fill="white"/>
<path d="M34.8823 29.4549C41.3205 29.4549 46.1372 24.7132 46.1372 18.4295C46.1372 12.1479 41.3205 7.44482 34.8823 7.44482C28.4464 7.44482 23.6274 12.1479 23.6274 18.4295C23.6274 24.7132 28.4464 29.4549 34.8823 29.4549ZM34.8823 24.1342C31.644 24.1342 29.3321 21.8223 29.3321 18.4295C29.3321 15.0775 31.644 12.7248 34.8823 12.7248C38.1207 12.7248 40.4326 15.0775 40.4326 18.4295C40.4326 21.8223 38.1207 24.1342 34.8823 24.1342Z" fill="white"/>
<path d="M50.1851 28.8371H55.8125V0.54541H50.1851V28.8371Z" fill="white"/>
<path d="M50.1851 28.8371H55.8125V0.54541H50.1851V28.8371Z" fill="white"/>
<path d="M78.1689 8.02387L77.592 9.98833C75.7798 8.40775 73.4293 7.44482 70.7293 7.44482C64.4863 7.44482 59.8218 12.1479 59.8218 18.4295C59.8218 24.7132 64.4863 29.4549 70.7293 29.4549C73.3907 29.4549 75.7026 28.5285 77.4762 26.9479L77.9759 28.8373H82.3702V8.02387H78.1689ZM71.1925 24.1342C67.9155 24.1342 65.5264 21.6679 65.5264 18.4295C65.5264 15.1547 67.9155 12.7248 71.1925 12.7248C74.4694 12.7248 76.8585 15.1547 76.8585 18.4295C76.8585 21.7065 74.4694 24.1342 71.1925 24.1342Z" fill="white"/>
<path d="M78.1689 8.02387L77.592 9.98833C75.7798 8.40775 73.4293 7.44482 70.7293 7.44482C64.4863 7.44482 59.8218 12.1479 59.8218 18.4295C59.8218 24.7132 64.4863 29.4549 70.7293 29.4549C73.3907 29.4549 75.7026 28.5285 77.4762 26.9479L77.9759 28.8373H82.3702V8.02387H78.1689ZM71.1925 24.1342C67.9155 24.1342 65.5264 21.6679 65.5264 18.4295C65.5264 15.1547 67.9155 12.7248 71.1925 12.7248C74.4694 12.7248 76.8585 15.1547 76.8585 18.4295C76.8585 21.7065 74.4694 24.1342 71.1925 24.1342Z" fill="white"/>
<path d="M97.4794 29.4549C102.916 29.4549 107.194 25.9078 108.157 20.6663H102.491C101.528 22.901 99.7548 24.1342 97.4794 24.1342C94.4726 24.1342 92.1221 21.6293 92.1221 18.4295C92.1221 15.1933 94.434 12.7248 97.4794 12.7248C99.7162 12.7248 101.603 13.958 102.491 16.0018H108.08C107.079 10.8762 102.916 7.44482 97.518 7.44482C91.1978 7.44482 86.4175 12.1479 86.4175 18.3909C86.4175 24.636 91.1978 29.4549 97.4794 29.4549Z" fill="white"/>
<path d="M97.4794 29.4549C102.916 29.4549 107.194 25.9078 108.157 20.6663H102.491C101.528 22.901 99.7548 24.1342 97.4794 24.1342C94.4726 24.1342 92.1221 21.6293 92.1221 18.4295C92.1221 15.1933 94.434 12.7248 97.4794 12.7248C99.7162 12.7248 101.603 13.958 102.491 16.0018H108.08C107.079 10.8762 102.916 7.44482 97.518 7.44482C91.1978 7.44482 86.4175 12.1479 86.4175 18.3909C86.4175 24.636 91.1978 29.4549 97.4794 29.4549Z" fill="white"/>
<path d="M132.094 18.3909C132.094 12.3774 127.699 7.44482 121.302 7.44482C115.134 7.44482 110.508 12.1866 110.508 18.4295C110.508 24.6746 115.173 29.4549 121.302 29.4549C126.158 29.4549 130.127 26.564 131.631 22.0153H125.733C124.886 23.5187 123.267 24.443 121.302 24.443C118.563 24.443 116.715 22.8624 116.213 20.0101H131.978C132.055 19.4718 132.094 18.9313 132.094 18.3909ZM121.302 12.2638C123.846 12.2638 125.658 13.6513 126.466 16.1948H116.367C117.024 13.7285 118.795 12.2638 121.302 12.2638Z" fill="white"/>
<path d="M132.094 18.3909C132.094 12.3774 127.699 7.44482 121.302 7.44482C115.134 7.44482 110.508 12.1866 110.508 18.4295C110.508 24.6746 115.173 29.4549 121.302 29.4549C126.158 29.4549 130.127 26.564 131.631 22.0153H125.733C124.886 23.5187 123.267 24.443 121.302 24.443C118.563 24.443 116.715 22.8624 116.213 20.0101H131.978C132.055 19.4718 132.094 18.9313 132.094 18.3909ZM121.302 12.2638C123.846 12.2638 125.658 13.6513 126.466 16.1948H116.367C117.024 13.7285 118.795 12.2638 121.302 12.2638Z" fill="white"/>
</svg>
