<svg width="32" height="38" viewBox="0 0 32 38" fill="none" xmlns="http://www.w3.org/2000/svg">
<path d="M31.4539 33.4933C31.5746 31.4017 31.3007 29.3061 30.6463 27.3159L30.6796 27.4347C30.5877 27.1623 30.5149 25.3349 27.4904 24.1536C25.2639 23.2842 22.279 23.4347 20.0668 21.9272C20.0137 21.7662 19.9724 21.6016 19.9432 21.4347L19.9401 21.4109C22.1825 20.9865 24.3308 20.1643 26.2837 18.9834L26.1982 19.0309C23.0121 18.1251 22.7778 13.0388 22.5545 9.90974C22.5545 9.02613 22.3787 8.18369 22.0604 7.41568L22.0763 7.45843C22.0595 7.39638 22.0437 7.33409 22.0288 7.27158L23.891 0H8.11585L9.97175 7.27633C9.95591 7.32858 9.94324 7.38717 9.92424 7.4616C9.60566 8.23889 9.44316 9.07128 9.44602 9.91132C9.22116 13.1132 8.96779 18.1267 5.80231 19.0325C7.69249 20.1725 9.76846 20.9711 11.9353 21.3919L12.0557 21.4109C12.0177 21.6168 11.9733 21.7894 11.9195 21.9588L11.929 21.9272C9.71838 23.4347 6.73501 23.2811 4.5054 24.1536C1.48244 25.3349 1.41118 27.1623 1.31933 27.4347C0.81102 28.958 0.518066 30.7126 0.518066 32.5352C0.518066 32.8725 0.527568 33.2066 0.548154 33.5392L0.54657 33.4933C0.530735 34.076 0.54657 34.9549 2.29004 35.7197C7.45393 37.9826 15.9717 38 16.005 38C20.7777 37.9732 25.5143 37.1721 30.0303 35.6279L29.72 35.7197C31.4587 34.9549 31.4698 34.076 31.4587 33.4885L31.4539 33.4933ZM22.3851 1.16706L20.8411 7.23832H11.1451L9.6012 1.16706H22.3851Z" fill="#DBA73B"/>
<path d="M13.5596 4.84775H15.265V6.55638H16.7203V4.84775H18.4289V3.39566H16.714V1.69336H15.2587V3.40199H13.5596V4.84775Z" fill="#DBA73B"/>
</svg>
