<svg width="36" height="38" viewBox="0 0 36 38" fill="none" xmlns="http://www.w3.org/2000/svg">
<path fill-rule="evenodd" clip-rule="evenodd" d="M17.9998 0C15.1938 0 11.7618 1.083 9.73581 1.82717C8.74781 2.19028 8.25281 3.32289 8.57981 4.37106L10.7278 11.2543C10.169 12.5408 9.92542 13.955 10.0195 15.3668C10.1137 16.7786 10.5425 18.1428 11.2665 19.334C11.9905 20.5252 12.9866 21.5052 14.1632 22.1839C15.3397 22.8627 16.659 23.2184 17.9998 23.2184C19.3406 23.2184 20.6599 22.8627 21.8365 22.1839C23.013 21.5052 24.0091 20.5252 24.7331 19.334C25.4572 18.1428 25.8859 16.7786 25.9801 15.3668C26.0742 13.955 25.8307 12.5408 25.2718 11.2543L27.4198 4.37211C27.7468 3.32289 27.2518 2.19028 26.2638 1.82822C24.2368 1.08194 20.8058 0 17.9998 0ZM12.3798 13.1153C16.1368 11.4866 19.8628 11.4866 23.6198 13.1153C23.6798 13.1417 23.7428 13.1607 23.8058 13.1744C24.0367 14.1108 24.0613 15.0907 23.8777 16.0387C23.694 16.9867 23.307 17.8777 22.7464 18.6432C22.1857 19.4088 21.4663 20.0286 20.6434 20.455C19.8205 20.8814 18.916 21.1032 17.9993 21.1032C17.0826 21.1032 16.1781 20.8814 15.3552 20.455C14.5323 20.0286 13.8129 19.4088 13.2523 18.6432C12.6916 17.8777 12.3046 16.9867 12.121 16.0387C11.9373 15.0907 11.9619 14.1108 12.1928 13.1744C12.2568 13.161 12.3194 13.1412 12.3798 13.1153ZM18.9998 5.27778H20.9998V7.38889H18.9998V9.5H16.9998V7.38889H14.9998V5.27778H16.9998V3.16667H18.9998V5.27778Z" fill="#DBA73B"/>
<path fill-rule="evenodd" clip-rule="evenodd" d="M16.85 27.6486L10.88 23.2227C10.88 23.2227 0 26.8042 0 31.1045V38.0004H36V31.1045C36 26.8042 25.121 23.2227 25.121 23.2227L19.149 27.6486C18.8124 27.898 18.4112 28.0318 18 28.0318C17.5888 28.0318 17.1866 27.898 16.85 27.6486ZM26 27.4449H28V29.556H30V31.6671H28V33.7782H26V31.6671H24V29.556H26V27.4449Z" fill="#DBA73B"/>
</svg>
