<svg width="40" height="42" viewBox="0 0 40 42" fill="none" xmlns="http://www.w3.org/2000/svg">
<path d="M21.4248 21C22.6846 21 23.8928 20.4996 24.7836 19.6088C25.6744 18.718 26.1748 17.5098 26.1748 16.25C26.1748 14.9902 25.6744 13.782 24.7836 12.8912C23.8928 12.0004 22.6846 11.5 21.4248 11.5C20.165 11.5 18.9568 12.0004 18.066 12.8912C17.1752 13.782 16.6748 14.9902 16.6748 16.25C16.6748 17.5098 17.1752 18.718 18.066 19.6088C18.9568 20.4996 20.165 21 21.4248 21Z" fill="#DBA73B" stroke="#DBA73B" stroke-width="4" stroke-miterlimit="2"/>
<path d="M17.6248 25.75L15.7248 32.4M17.6248 25.75L2.4248 20.05M17.6248 25.75L9.07481 17.2L8.1248 8.65M15.7248 32.4L7.1748 29.55L3.3748 40M15.7248 32.4L17.1403 38.556C17.2421 38.9679 17.4789 39.3339 17.813 39.5956C18.147 39.8573 18.559 39.9997 18.9833 40H29.0343M7.1748 2H11.9248C23.3248 2 37.5748 3.3775 37.5748 28.6" stroke="#DBA73B" stroke-width="4" stroke-miterlimit="2" stroke-linecap="round" stroke-linejoin="round"/>
</svg>
