<svg width="40" height="40" viewBox="0 0 40 40" fill="none" xmlns="http://www.w3.org/2000/svg">
<circle cx="20.3945" cy="19.7663" r="19.6101" fill="#121933"/>
<path d="M27.5266 28.2756C26.7491 29.485 25.6831 30.5426 24.3952 31.3923C25.1123 28.6089 24.5789 25.2737 19.8208 22.9092L19.8204 22.9133C18.2396 22.2141 16.4252 21.3582 14.7623 20.2809C11.6705 18.2789 10.7916 14.1217 12.8585 11.0695C13.622 9.94028 14.6437 8.94934 15.8643 8.14544C15.1472 10.9288 15.6784 14.2638 20.4387 16.6286L20.4391 16.6244C22.0199 17.3236 23.8362 18.1797 25.4991 19.257C28.5162 21.2139 29.4716 25.2533 27.5266 28.2756Z" fill="white"/>
<path d="M21.8369 14.9331C23.8389 15.13 25.6214 13.6668 25.8184 11.6648C26.0154 9.66287 24.5521 7.88028 22.5502 7.68331C20.5482 7.48634 18.7656 8.94957 18.5686 10.9515C18.3717 12.9535 19.8349 14.7361 21.8369 14.9331Z" fill="#DBA73B"/>
<path d="M17.5261 31.5395C19.5281 31.7365 21.3107 30.2732 21.5076 28.2713C21.7046 26.2693 20.2414 24.4867 18.2394 24.2898C16.2374 24.0928 14.4548 25.556 14.2579 27.558C14.0609 29.56 15.5241 31.3426 17.5261 31.5395Z" fill="#DBA73B"/>
</svg>
