<svg width="35" height="38" viewBox="0 0 35 38" fill="none" xmlns="http://www.w3.org/2000/svg">
<path d="M10.8839 12.8128L11.1056 12.7938C11.1859 12.7849 11.2626 12.7561 11.3288 12.7099L11.3273 12.7114C11.5394 13.443 11.7991 14.2125 12.1237 15.0184C12.5401 16.073 12.9502 16.9391 13.4094 17.7751L13.3461 17.6485C13.3081 18.2248 13.2622 18.817 13.202 19.3902C13.1756 19.7283 13.107 20.0619 12.9977 20.383L13.0057 20.3545C12.9867 20.3624 12.9597 23.6479 12.9597 23.6479C12.9603 24.6674 13.3039 25.657 13.9352 26.4574C14.5665 27.2579 15.4488 27.8227 16.44 28.0608L16.4717 28.0672C16.5157 27.9528 16.5932 27.8545 16.6941 27.785C16.795 27.7155 16.9145 27.6781 17.037 27.6776H17.9458C18.0672 27.6793 18.1854 27.7166 18.2857 27.7851C18.3859 27.8535 18.4638 27.95 18.5095 28.0624L18.5111 28.0672C19.5107 27.8361 20.4031 27.2743 21.0437 26.4728C21.6842 25.6713 22.0355 24.6771 22.0405 23.6511C22.0405 23.6511 21.9851 20.3782 21.9566 20.3561C21.8622 20.05 21.7975 19.7356 21.7634 19.4171L21.7618 19.3933C21.7064 18.817 21.67 18.2391 21.6177 17.6516C22.0088 16.9454 22.4189 16.0809 22.7799 15.1895L22.8401 15.0216C23.1647 14.2157 23.4164 13.4477 23.6365 12.7146C23.7016 12.7608 23.7773 12.7897 23.8566 12.7985H23.8582L24.0815 12.8175C24.3506 12.846 24.5882 12.6244 24.6103 12.2808L24.851 9.22324V9.22007C24.8509 9.09704 24.8059 8.97825 24.7247 8.88589C24.6434 8.79353 24.5313 8.7339 24.4092 8.71814H24.3791C24.59 7.12603 24.4594 5.50726 23.996 3.96956L24.0165 4.05031C23.5699 3.05866 22.8907 2.18939 22.0365 1.51626C21.1822 0.843124 20.1782 0.385999 19.1096 0.183673L19.0685 0.17734C18.5504 0.0734662 18.0244 0.0141364 17.4962 0H17.4629C16.9104 0.00989477 16.36 0.0724579 15.8193 0.18684L15.8763 0.17734C14.8083 0.375581 13.8033 0.82678 12.9455 1.49317C12.0876 2.15955 11.4019 3.02174 10.9457 4.00756L10.9283 4.05031C10.4724 5.58209 10.3509 7.19392 10.572 8.77672L10.5657 8.71814C10.4433 8.73138 10.3301 8.78924 10.2478 8.88067C10.1654 8.9721 10.1196 9.09068 10.1191 9.21374V9.22482L10.3598 12.2823C10.382 12.6339 10.6227 12.846 10.8823 12.8175L10.8839 12.8128Z" fill="#DBA73B"/>
<path d="M34.4541 33.0483C34.3433 28.2348 33.8619 27.1455 33.6023 26.4076C33.4993 26.1115 33.4154 24.1101 30.1093 22.8117C28.0826 22.0137 25.4668 21.9979 23.2532 21.0621V23.6652C23.2509 24.9997 22.7846 26.2918 21.9342 27.3202C21.0837 28.3486 19.9021 29.0492 18.5917 29.302L18.5553 29.3084C18.5316 29.4488 18.4593 29.5765 18.3511 29.6691C18.2429 29.7617 18.1056 29.8133 17.9631 29.815H17.9346V31.7785C17.9346 32.6998 18.3006 33.5834 18.9521 34.2349C19.6036 34.8864 20.4872 35.2524 21.4086 35.2524C22.3299 35.2524 23.2136 34.8864 23.865 34.2349C24.5165 33.5834 24.8825 32.6998 24.8825 31.7785V30.4072C24.4043 30.3371 23.9684 30.0942 23.6573 29.7244C23.3461 29.3545 23.1812 28.8835 23.1939 28.4004C23.2065 27.9172 23.3958 27.4555 23.7259 27.1024C24.056 26.7494 24.504 26.5296 24.9852 26.4846C25.4664 26.4396 25.9475 26.5725 26.3373 26.8582C26.7271 27.1439 26.9988 27.5625 27.1008 28.0349C27.2028 28.5073 27.1282 29.0008 26.891 29.4219C26.6538 29.843 26.2705 30.1626 25.8136 30.3202L25.7993 30.3249V31.8529C25.7993 33.0178 25.3366 34.135 24.5128 34.9587C23.6891 35.7824 22.5719 36.2452 21.407 36.2452C20.2421 36.2452 19.1249 35.7824 18.3012 34.9587C17.4774 34.135 17.0147 33.0178 17.0147 31.8529V31.7737V31.7769V29.796C16.8791 29.7868 16.7506 29.7321 16.65 29.6407C16.5494 29.5493 16.4827 29.4266 16.4605 29.2925V29.2894C15.1487 29.0392 13.9648 28.3407 13.1114 27.3134C12.2581 26.2862 11.7885 24.9942 11.7832 23.6588V21.0352C9.56009 21.9899 6.9285 22.0089 4.89068 22.8086C1.57506 24.1053 1.49906 26.102 1.39772 26.4028C1.14438 27.1439 0.656693 28.2285 0.545855 33.0452C0.526855 33.6785 0.545855 34.6491 2.45542 35.4978C6.6134 37.1287 11.97 37.6354 17.2506 37.9996H17.7573C23.049 37.6386 28.3977 37.1335 32.5525 35.4978C34.4541 34.6539 34.4715 33.688 34.4541 33.0483ZM11.2084 31.0849H9.23549V33.0657H7.82628V31.0913H5.85338V29.682H7.82628V27.7091H9.23549V29.682H11.2084V31.0849Z" fill="#DBA73B"/>
<path d="M26.2348 28.4356C26.2345 28.153 26.1221 27.8805 25.9222 27.6808C25.7223 27.4812 25.4513 27.369 25.1687 27.3691C24.8862 27.3692 24.6152 27.4816 24.4155 27.6814C24.2157 27.8812 24.1035 28.1522 24.1035 28.4348C24.1035 28.7173 24.2157 28.9883 24.4155 29.1881C24.6152 29.388 24.8862 29.5003 25.1687 29.5004C25.4513 29.5005 25.7223 29.3884 25.9222 29.1887C26.1221 28.989 26.2345 28.7181 26.2348 28.4356Z" fill="#DBA73B"/>
</svg>
