<svg width="24" height="25" viewBox="0 0 24 25" fill="none" xmlns="http://www.w3.org/2000/svg">
<path fill-rule="evenodd" clip-rule="evenodd" d="M12 3.1875C6.61522 3.1875 2.25 7.55272 2.25 12.9375C2.25 18.3223 6.61522 22.6875 12 22.6875C17.3848 22.6875 21.75 18.3223 21.75 12.9375C21.75 7.55272 17.3848 3.1875 12 3.1875ZM12.75 9.9375C12.75 9.52329 12.4142 9.1875 12 9.1875C11.5858 9.1875 11.25 9.52329 11.25 9.9375V12.1875H9C8.58579 12.1875 8.25 12.5233 8.25 12.9375C8.25 13.3517 8.58579 13.6875 9 13.6875H11.25V15.9375C11.25 16.3517 11.5858 16.6875 12 16.6875C12.4142 16.6875 12.75 16.3517 12.75 15.9375V13.6875H15C15.4142 13.6875 15.75 13.3517 15.75 12.9375C15.75 12.5233 15.4142 12.1875 15 12.1875H12.75V9.9375Z" fill="#121933"/>
</svg>
