<svg width="37" height="36" viewBox="0 0 37 36" fill="none" xmlns="http://www.w3.org/2000/svg">
<path d="M17.9675 31.366L17.9577 31.3607L17.9237 31.3423C17.8947 31.3266 17.8534 31.3039 17.8004 31.2743C17.6944 31.2152 17.5419 31.1286 17.3494 31.0154C16.9647 30.7891 16.4198 30.4559 15.7678 30.0225C14.4661 29.1571 12.7268 27.8851 10.9829 26.2595C7.53172 23.0423 3.875 18.2627 3.875 12.375C3.875 7.98292 7.5704 4.5 12.0312 4.5C14.6546 4.5 17.0035 5.69863 18.5 7.57739C19.9965 5.69863 22.3454 4.5 24.9688 4.5C29.4296 4.5 33.125 7.98292 33.125 12.375C33.125 18.2627 29.4683 23.0423 26.0171 26.2595C24.2732 27.8851 22.5339 29.1571 21.2322 30.0225C20.5802 30.4559 20.0353 30.7891 19.6506 31.0154C19.4581 31.1286 19.3056 31.2152 19.1996 31.2743C19.1466 31.3039 19.1053 31.3266 19.0763 31.3423L19.0423 31.3607L19.0325 31.366L19.0284 31.3682C18.6985 31.5434 18.3015 31.5434 17.9716 31.3682L17.9675 31.366Z" fill="#DBA73B"/>
</svg>
