<svg width="24" height="25" viewBox="0 0 24 25" fill="none" xmlns="http://www.w3.org/2000/svg">
<path fill-rule="evenodd" clip-rule="evenodd" d="M6.75 3.1543C7.16421 3.1543 7.5 3.49008 7.5 3.9043V5.4043H16.5V3.9043C16.5 3.49008 16.8358 3.1543 17.25 3.1543C17.6642 3.1543 18 3.49008 18 3.9043V5.4043H18.75C20.4069 5.4043 21.75 6.74744 21.75 8.4043V19.6543C21.75 21.3112 20.4069 22.6543 18.75 22.6543H5.25C3.59315 22.6543 2.25 21.3112 2.25 19.6543V8.4043C2.25 6.74744 3.59315 5.4043 5.25 5.4043H6V3.9043C6 3.49008 6.33579 3.1543 6.75 3.1543ZM20.25 12.1543C20.25 11.3259 19.5784 10.6543 18.75 10.6543H5.25C4.42157 10.6543 3.75 11.3259 3.75 12.1543V19.6543C3.75 20.4827 4.42157 21.1543 5.25 21.1543H18.75C19.5784 21.1543 20.25 20.4827 20.25 19.6543V12.1543Z" fill="black"/>
</svg>
