<svg width="41" height="40" viewBox="0 0 41 40" fill="none" xmlns="http://www.w3.org/2000/svg">
<path d="M8 6.25C5.23858 6.25 3 8.48858 3 11.25V12.5H38V11.25C38 8.48858 35.7614 6.25 33 6.25H8Z" fill="#DBA73B"/>
<path fill-rule="evenodd" clip-rule="evenodd" d="M38 16.25H3V28.75C3 31.5114 5.23858 33.75 8 33.75H33C35.7614 33.75 38 31.5114 38 28.75V16.25ZM8 22.5C8 21.8096 8.55964 21.25 9.25 21.25H19.25C19.9404 21.25 20.5 21.8096 20.5 22.5C20.5 23.1904 19.9404 23.75 19.25 23.75H9.25C8.55964 23.75 8 23.1904 8 22.5ZM9.25 26.25C8.55964 26.25 8 26.8096 8 27.5C8 28.1904 8.55964 28.75 9.25 28.75H14.25C14.9404 28.75 15.5 28.1904 15.5 27.5C15.5 26.8096 14.9404 26.25 14.25 26.25H9.25Z" fill="#DBA73B"/>
</svg>
