<svg width="41" height="41" viewBox="0 0 41 41" fill="none" xmlns="http://www.w3.org/2000/svg">
<path fill-rule="evenodd" clip-rule="evenodd" d="M8 6.75C5.23858 6.75 3 8.98858 3 11.75V29.25C3 32.0114 5.23858 34.25 8 34.25H33C35.7614 34.25 38 32.0114 38 29.25V11.75C38 8.98858 35.7614 6.75 33 6.75H8ZM14.875 11.75C12.8039 11.75 11.125 13.4289 11.125 15.5C11.125 17.5711 12.8039 19.25 14.875 19.25C16.9461 19.25 18.625 17.5711 18.625 15.5C18.625 13.4289 16.9461 11.75 14.875 11.75ZM8.41985 26.2546C9.38483 23.6274 11.909 21.75 14.8749 21.75C17.8408 21.75 20.365 23.6274 21.33 26.2546C21.5452 26.8405 21.2952 27.4954 20.7443 27.7888C18.993 28.7218 16.9938 29.25 14.8749 29.25C12.7561 29.25 10.7569 28.7218 9.00551 27.7888C8.45463 27.4954 8.20465 26.8405 8.41985 26.2546ZM25.5 14.25C24.8096 14.25 24.25 14.8096 24.25 15.5C24.25 16.1904 24.8096 16.75 25.5 16.75H31.75C32.4404 16.75 33 16.1904 33 15.5C33 14.8096 32.4404 14.25 31.75 14.25H25.5ZM24.25 20.5C24.25 19.8096 24.8096 19.25 25.5 19.25H31.75C32.4404 19.25 33 19.8096 33 20.5C33 21.1904 32.4404 21.75 31.75 21.75H25.5C24.8096 21.75 24.25 21.1904 24.25 20.5ZM25.5 24.25C24.8096 24.25 24.25 24.8096 24.25 25.5C24.25 26.1904 24.8096 26.75 25.5 26.75H31.75C32.4404 26.75 33 26.1904 33 25.5C33 24.8096 32.4404 24.25 31.75 24.25H25.5Z" fill="#DBA73B"/>
</svg>
