<svg width="24" height="25" viewBox="0 0 24 25" fill="none" xmlns="http://www.w3.org/2000/svg">
<path fill-rule="evenodd" clip-rule="evenodd" d="M12 3.21875C6.61522 3.21875 2.25 7.58397 2.25 12.9688C2.25 18.3535 6.61522 22.7188 12 22.7188C17.3848 22.7188 21.75 18.3535 21.75 12.9688C21.75 7.58397 17.3848 3.21875 12 3.21875ZM7.71967 12.4384C7.57902 12.5791 7.5 12.7698 7.5 12.9688C7.5 13.1677 7.57902 13.3584 7.71967 13.4991L10.7197 16.4991C11.0126 16.792 11.4874 16.792 11.7803 16.4991C12.0732 16.2062 12.0732 15.7313 11.7803 15.4384L10.0607 13.7188H15.75C16.1642 13.7188 16.5 13.383 16.5 12.9688C16.5 12.5545 16.1642 12.2188 15.75 12.2188L10.0607 12.2188L11.7803 10.4991C12.0732 10.2062 12.0732 9.73131 11.7803 9.43842C11.4874 9.14553 11.0126 9.14553 10.7197 9.43842L7.71967 12.4384Z" fill="black"/>
</svg>
