<svg width="25" height="28" viewBox="0 0 25 28" fill="none" xmlns="http://www.w3.org/2000/svg">
<g clip-path="url(#clip0_1079_3630)">
<path d="M13.5402 13.2558L18.0048 8.80496L3.58424 0.725096C2.62851 0.21032 1.73317 0.138072 0.948044 0.701013L13.5402 13.2558ZM18.7658 18.4668L23.4071 15.8643C24.313 15.3586 24.8097 14.6421 24.8097 13.8474C24.8097 13.0541 24.313 12.3361 23.4086 11.8304L19.2067 9.47778L14.4763 14.192L18.7658 18.4668ZM0.171981 1.79529C0.0753506 2.09181 0.0209961 2.42295 0.0209961 2.7857V24.9195C0.0209961 25.493 0.147824 25.9867 0.377321 26.3796L12.6026 14.1905L0.171981 1.79529ZM13.5402 15.1238L1.38288 27.2451C1.6154 27.3339 1.86603 27.3805 2.13026 27.3805C2.60133 27.3805 3.09203 27.242 3.59179 26.9651L17.5655 19.1426L13.5402 15.1238Z" fill="#121933"/>
</g>
<defs>
<clipPath id="clip0_1079_3630">
<rect width="24.9545" height="27.0935" fill="white" transform="translate(0.0214844 0.287109)"/>
</clipPath>
</defs>
</svg>
