<svg width="39" height="36" viewBox="0 0 39 36" fill="none" xmlns="http://www.w3.org/2000/svg">
<path fill-rule="evenodd" clip-rule="evenodd" d="M20.4136 0.0612904C16.5869 0.49901 13.1353 2.11354 10.5944 4.65453C9.47424 5.77467 8.76677 6.74107 8.76677 7.15106C8.76677 7.67716 8.92521 7.73142 10.4623 7.7317C12.7325 7.73216 14.3497 8.0241 16.0752 8.74506C16.9991 9.13111 17.7697 9.57003 19.7121 10.8165C21.3077 11.8405 22.1522 12.1775 23.2767 12.2388C23.9033 12.273 24.2524 12.2445 24.6633 12.1259C25.2247 11.9638 26.2372 11.4688 26.6373 11.1612L26.8605 10.9896L26.6373 10.8741C25.9636 10.5252 17.6772 5.6679 17.7063 5.63887C17.7741 5.57111 19.6812 5.79796 20.6365 5.98738C21.8774 6.23347 23.0463 6.62191 24.1253 7.14662C26.7066 8.402 28.8974 10.8011 30.0659 13.6524C30.3762 14.4094 30.5265 14.5722 30.9154 14.5722C31.2976 14.5722 31.5782 14.2536 31.5074 13.8999C31.3285 13.0053 30.1908 10.9276 29.2087 9.70176L28.5827 8.92043L28.8716 8.07901C29.442 6.41761 29.3315 4.83101 28.5326 3.21278C27.8057 1.74043 26.4587 0.581378 25.0272 0.196351C24.3613 0.0171951 21.5249 -0.0658194 20.4136 0.0612904ZM9.20874 12.9751C8.47372 13.7682 7.39842 15.5769 6.89044 16.8748C6.69954 17.3626 6.50578 17.7881 6.45993 17.8205C6.41408 17.853 6.1789 17.9058 5.93735 17.9378C5.32778 18.0186 4.27133 18.3906 3.64447 18.745C3.35522 18.9087 2.78336 19.3783 2.37384 19.7887C1.1717 20.9933 0.580617 22.3551 0.577659 23.9276C0.575625 24.962 0.712626 25.4956 1.27283 26.6361C2.7865 29.7179 5.22664 32.35 8.12234 34.0248C9.70793 34.942 11.9593 35.7011 13.7896 35.9358C14.5247 36.0301 14.6514 36.0248 14.8555 35.8912C15.2905 35.6061 15.2532 35.3813 14.5877 34.28C13.5676 32.5914 12.928 30.9353 12.6533 29.2708C12.474 28.1847 12.4569 27.484 12.544 24.7872C12.6223 22.3622 12.5459 21.763 12.0236 20.702C11.6305 19.9034 10.7875 19.0594 9.93599 18.612C9.57805 18.4239 9.26005 18.27 9.22935 18.27C9.19866 18.27 9.17352 20.6703 9.17352 23.604C9.17352 27.2066 9.1431 28.9075 9.07987 28.8443C8.88704 28.6515 7.96131 26.3698 7.70579 25.4574C7.30237 24.0173 7.19366 23.2452 7.19486 21.8291C7.19735 18.9257 7.9051 16.9742 10.0914 13.8419C10.4229 13.3669 10.4446 13.1625 10.1904 12.9083C9.92203 12.6399 9.49226 12.6691 9.20874 12.9751ZM35.9608 16.3056C35.8824 16.3946 35.7036 16.6961 35.5635 16.9758C34.5459 19.0056 32.7911 21.0339 31.0504 22.1922C30.6257 22.4748 29.5561 23.0846 28.6735 23.5476C26.8373 24.5104 26.4061 24.7835 25.7821 25.378C25.1794 25.9523 24.8346 26.4666 24.5558 27.2071C24.3078 27.8662 24.1695 29.0873 24.2776 29.6637L24.339 29.991L28.4735 27.6364C30.7474 26.3414 32.8367 25.1513 33.1164 24.9917L33.6248 24.7015L33.4501 24.9756C32.2764 26.8158 30.6572 28.4996 28.9684 29.636C28.0784 30.2349 26.5802 30.915 25.6067 31.162C23.9306 31.5871 22.6032 31.6538 20.2098 31.4329C19.6163 31.3782 19.5326 31.3915 19.3547 31.5695C19.1154 31.8088 19.1013 32.1395 19.3192 32.4076C19.5399 32.6792 20.3157 32.7831 22.1618 32.7884C23.4596 32.792 24.7138 32.6922 25.1765 32.5483C25.2772 32.517 25.4561 32.6714 25.7293 33.0256C26.814 34.4317 28.8131 35.3739 30.7045 35.3706C32.8257 35.367 34.4789 34.4037 35.6737 32.475C36.8467 30.5818 37.7364 28.3916 38.1752 26.3179C38.3969 25.2699 38.421 24.9638 38.4226 23.1695C38.4243 21.357 38.4025 21.0788 38.1748 20.0103C37.7962 18.2335 37.1094 16.4437 36.7274 16.2393C36.4581 16.0952 36.1203 16.1244 35.9608 16.3056Z" fill="#DBA73B"/>
</svg>
