<svg width="90" height="87" viewBox="0 0 90 87" fill="none" xmlns="http://www.w3.org/2000/svg">
<g clip-path="url(#clip0_199_5109)">
<path fill-rule="evenodd" clip-rule="evenodd" d="M81.7368 42.0907V61.5042C81.7368 64.1284 80.6703 66.5078 78.9527 68.2254C77.2352 69.943 74.8557 71.0095 72.2317 71.0095H14.6864C12.0622 71.0095 9.68275 69.943 7.96516 68.2254C6.24759 66.5078 5.18115 64.1284 5.18115 61.5042V25.5385C5.18115 22.9029 6.25695 20.514 7.98771 18.7948C9.70354 17.0904 12.0738 16.0332 14.6864 16.0332H55.6794C55.0928 17.4972 54.6738 19.0466 54.4465 20.6574H14.6864C14.2752 20.6574 13.8762 20.7081 13.4951 20.8035L42.6057 46.8625L42.6077 46.8644C43.0935 47.2943 43.8237 47.2946 44.3097 46.8648L44.3123 46.8625L57.7602 34.8178C58.6372 36.0941 59.6582 37.2637 60.7998 38.3032L57.5595 41.2053L76.9566 62.7353C77.0585 62.3422 77.1126 61.9298 77.1126 61.5042V43.3237C78.7235 43.0963 80.2728 42.6774 81.7368 42.0907ZM54.1149 44.2906L73.792 66.1311C73.3023 66.2962 72.7778 66.3853 72.2317 66.3853H14.6864C14.1972 66.3853 13.7253 66.3138 13.2802 66.1803L34.0502 45.4102L39.5274 50.3132L39.5335 50.3186C41.7723 52.3086 45.1457 52.3086 47.3845 50.3186L47.3909 50.3129L54.1149 44.2906ZM30.5997 42.3213L10.0104 62.9104C9.87689 62.4654 9.80532 61.9934 9.80532 61.5042V25.5385C9.80532 24.9799 9.89864 24.4438 10.0709 23.9445L30.5997 42.3213Z" fill="white"/>
<path d="M74.2864 36.5845C81.5223 36.5845 87.3882 30.7186 87.3882 23.4827C87.3882 16.2467 81.5223 10.3809 74.2864 10.3809C67.0505 10.3809 61.1846 16.2467 61.1846 23.4827C61.1846 30.7186 67.0505 36.5845 74.2864 36.5845Z" fill="#DBA73B" stroke="white" stroke-width="4.62417"/>
</g>
<defs>
<clipPath id="clip0_199_5109">
<rect width="89.4006" height="86.3178" fill="white" transform="translate(0.299805 0.362305)"/>
</clipPath>
</defs>
</svg>
