<svg width="37" height="37" viewBox="0 0 37 37" fill="none" xmlns="http://www.w3.org/2000/svg">
<path fill-rule="evenodd" clip-rule="evenodd" d="M2.28832 0.955913C1.58721 1.19874 1.0253 1.71555 0.703412 2.41357C0.546758 2.75332 0.543804 2.80671 0.543804 5.32719V7.89471L0.732886 8.2982C0.974515 8.81368 1.52411 9.36327 2.03958 9.6049L2.44307 9.79398H18.5165H34.59L34.9934 9.6049C35.5089 9.36327 36.0585 8.81368 36.3001 8.2982L36.4892 7.89471V5.32719V2.75966L36.3001 2.35617C36.0585 1.84069 35.5089 1.2911 34.9934 1.04947L34.59 0.860387L18.622 0.84477C3.40059 0.829928 2.63701 0.835133 2.28832 0.955913ZM3.92113 14.4447C3.1356 14.6346 2.49998 15.0078 1.84262 15.6651C0.914442 16.5934 0.510742 17.5536 0.510742 18.8331C0.510742 20.1127 0.914513 21.073 1.84262 22.0008C2.76735 22.925 3.73739 23.333 5.0106 23.333C6.29008 23.333 7.25033 22.9293 8.17858 22.0011C9.10676 21.0728 9.51046 20.1126 9.51046 18.8331C9.51046 17.5599 9.10254 16.5898 8.1783 15.6651C7.51053 14.9971 6.8811 14.6323 6.06575 14.4407C5.49928 14.3076 4.4805 14.3095 3.92113 14.4447ZM14.218 14.4962C13.2746 14.8855 12.6922 15.5986 12.5354 16.5565C12.4448 17.1096 12.4448 34.0625 12.5354 34.6156C12.6748 35.4669 13.2138 36.188 14.0001 36.575L14.4688 36.8058H24.5294H34.59L34.9934 36.6167C35.5089 36.3751 36.0585 35.8255 36.3001 35.31L36.4892 34.9065V25.5861V16.2656L36.3001 15.8621C36.0585 15.3466 35.5089 14.797 34.9934 14.5554L34.59 14.3663L24.6012 14.3499L14.6125 14.3334L14.218 14.4962ZM3.92113 27.9506C3.1356 28.1405 2.49998 28.5137 1.84262 29.171C0.914442 30.0993 0.510742 31.0595 0.510742 32.339C0.510742 33.6186 0.914513 34.5789 1.84262 35.5067C2.76735 36.4309 3.73739 36.8389 5.0106 36.8389C6.29008 36.8389 7.25033 36.4352 8.17858 35.507C9.10676 34.5787 9.51046 33.6185 9.51046 32.339C9.51046 31.0658 9.10254 30.0958 8.1783 29.171C7.51053 28.503 6.8811 28.1382 6.06575 27.9466C5.49928 27.8135 4.4805 27.8154 3.92113 27.9506Z" fill="#DBA73B"/>
</svg>
