<svg width="50" height="60" viewBox="0 0 50 60" fill="none" xmlns="http://www.w3.org/2000/svg">
<path d="M14.145 4.12839L14.145 4.12841C13.5101 5.08126 12.9234 5.96353 12.4896 6.61736C12.2921 6.91505 12.1264 7.16519 12.0023 7.353C12.0965 7.40908 12.212 7.47525 12.3509 7.55228C12.9001 7.85681 13.7655 8.30385 14.9926 8.91766L14.9926 8.91767C15.96 9.40158 16.8458 9.84128 17.4935 10.1598C17.787 10.3041 18.0308 10.4232 18.2109 10.5101C18.3305 10.3453 18.4886 10.118 18.6746 9.84439C19.081 9.24644 19.6099 8.44305 20.1368 7.62667C20.6637 6.81037 21.1866 5.98425 21.5812 5.34101C21.7788 5.0189 21.9423 4.74578 22.0577 4.54387C22.1156 4.44239 22.1588 4.36339 22.1874 4.30727C22.1952 4.29192 22.2012 4.27969 22.2057 4.27027C22.2558 3.92577 22.1163 3.51636 21.8427 3.25967C21.8428 3.25975 21.8427 3.25964 21.8423 3.25931C21.8396 3.25705 21.8251 3.24464 21.7916 3.21885C21.7566 3.19197 21.7102 3.15759 21.6526 3.116C21.5375 3.03296 21.3856 2.92671 21.2067 2.80394C20.8493 2.5587 20.392 2.25273 19.9237 1.94462C18.9742 1.31989 18.0199 0.713159 17.7444 0.568957L14.145 4.12839ZM14.145 4.12839C15.0593 2.75604 15.6507 1.88933 16.0508 1.34757M14.145 4.12839L16.0508 1.34757M9.45424 11.6037L9.45418 11.6038C9.35456 11.6435 9.19338 11.7411 9.10743 11.8104C9.10664 11.8114 9.10581 11.8125 9.10494 11.8136C9.08744 11.8362 9.06188 11.8704 9.02757 11.9175C8.9594 12.0112 8.86427 12.1453 8.74438 12.3169C8.505 12.6594 8.17226 13.1434 7.76997 13.7339C6.96567 14.9146 5.88644 16.5167 4.72658 18.255L4.3167 17.9815L4.72658 18.255C2.44522 21.674 1.3241 23.3568 0.818906 24.2916C0.563229 24.7647 0.506896 24.9749 0.500596 25.0815C0.496434 25.152 0.507085 25.1944 0.610457 25.3951C0.612196 25.3976 0.620172 25.4103 0.638787 25.4379C0.6646 25.4761 0.701532 25.5294 0.749831 25.5982C0.846155 25.7353 0.983052 25.927 1.15662 26.1678C1.50349 26.6493 1.99344 27.3225 2.59075 28.1389C3.78519 29.7712 5.40695 31.9728 7.1676 34.3493C8.92891 36.7268 10.5546 38.9281 11.7548 40.5596C12.3549 41.3753 12.849 42.049 13.2006 42.5311C13.5405 42.9971 13.7689 43.3132 13.8128 43.3851M9.45424 11.6037L13.3859 43.6454M9.45424 11.6037C9.60338 11.5442 9.657 11.5298 9.77267 11.5428C9.93169 11.5608 10.2023 11.637 10.7427 11.8657C11.8132 12.3188 13.7496 13.2834 17.5839 15.2007C21.057 16.9374 22.9255 17.8774 23.959 18.435C25.0268 19.0111 25.1032 19.1341 25.1487 19.2072L25.1488 19.2073C25.357 19.5422 25.4079 19.8256 25.3005 20.2089C25.1793 20.6413 24.853 21.2082 24.2173 22.0545C24.1796 22.1047 24.1464 22.1493 24.1168 22.1891C23.9753 22.3792 23.9149 22.4605 23.825 22.5285C23.7428 22.5907 23.6006 22.6623 23.2131 22.7144C22.4656 22.815 21.0904 22.8147 18.2193 22.8142C17.9856 22.8141 17.742 22.8141 17.488 22.8141C14.8904 22.8142 13.3945 22.8198 12.5042 22.8467C11.6479 22.8726 11.2607 22.9158 10.972 23.0528L10.9719 23.0528C10.3874 23.3303 9.98943 23.8548 9.81684 24.419C9.64454 24.9821 9.68272 25.6357 10.0442 26.1674L10.0443 26.1675C10.2357 26.449 10.5977 26.791 10.8887 26.962L10.8888 26.962C11.0116 27.0342 11.144 27.1013 11.3402 27.1505C11.5206 27.1957 11.7404 27.2222 12.039 27.241C12.635 27.2785 13.6552 27.2907 15.5361 27.3078L19.2188 27.3412L9.45424 11.6037ZM13.8128 43.3851L13.3859 43.6454M13.8128 43.3851C13.8128 43.3851 13.8127 43.385 13.8127 43.385L13.3859 43.6454M13.8128 43.3851C13.9064 43.5387 13.9761 43.7302 14.0226 43.9043C14.0699 44.0814 14.1042 44.2819 14.1056 44.4646C14.1063 44.5551 14.0829 44.6871 14.0641 44.7897C14.0408 44.9163 14.007 45.0828 13.9645 45.2825C13.8793 45.6826 13.7565 46.2279 13.6054 46.8779C13.3031 48.1786 12.8861 49.9065 12.427 51.7482L10.7977 58.2857M13.3859 43.6454C13.5047 43.8402 13.6036 44.2107 13.6056 44.4685C13.6076 44.7263 12.859 47.9477 11.9419 51.6273L10.2745 58.3173M10.7977 58.2857L10.7416 58.139L10.2745 58.3173M10.7977 58.2857L10.7597 58.4382L10.2745 58.3173M10.7977 58.2857L10.2745 58.3173M23.5353 9.65866L23.9506 9.93714C23.4116 10.7408 22.9222 11.4808 22.568 12.0252C22.4453 12.2137 22.3394 12.3779 22.2536 12.5128C22.4268 12.6081 22.6486 12.7262 22.9074 12.8612C23.5659 13.2046 24.4472 13.6486 25.3331 14.0856C26.2191 14.5227 27.1063 14.9509 27.7763 15.2629C28.0829 15.4056 28.3406 15.5223 28.5305 15.6041C28.6189 15.4747 28.7311 15.3091 28.8622 15.1149C29.1814 14.6419 29.6102 14.0021 30.0712 13.3097C30.8678 12.1137 31.2719 11.4974 31.486 11.1036C31.5897 10.9128 31.6374 10.7944 31.6634 10.7027C31.6888 10.6134 31.6997 10.5292 31.7089 10.3898L23.5353 9.65866ZM23.5353 9.65866L23.9506 9.93713C24.6001 8.96862 25.1194 8.22194 25.5072 7.69788C25.7014 7.43541 25.8588 7.23389 25.9807 7.09018C26.1088 6.93906 26.1675 6.88871 26.1725 6.88443C26.1728 6.8842 26.1729 6.8841 26.1729 6.88412C26.3503 6.76655 26.5534 6.70343 26.8443 6.70343C27.0265 6.70343 27.1342 6.71988 27.3037 6.79308C27.5044 6.8798 27.7805 7.04222 28.2871 7.36465L28.5556 6.94283M23.5353 9.65866L28.5556 6.94283M28.5556 6.94283L28.2871 7.36465M28.5556 6.94283L28.2871 7.36465M29.3407 24.5239L29.3407 24.5239C29.4688 24.6117 29.7578 24.7642 30.1599 24.9534C30.5506 25.1372 31.0178 25.3419 31.4798 25.5333C31.9421 25.7248 32.3938 25.9008 32.7535 26.028C32.934 26.0918 33.086 26.1414 33.202 26.1744C33.3119 26.2057 33.355 26.2117 33.3548 26.2128C33.3548 26.2131 33.352 26.213 33.3469 26.213C33.6088 26.213 33.6953 26.2055 33.7834 26.1679C33.8735 26.1295 34.0172 26.0335 34.2817 25.7252C34.8188 25.0993 35.6668 23.831 37.41 21.216L37.8261 21.4933L37.41 21.2159C39.1986 18.5329 40.0586 17.2405 40.4224 16.4976C40.6012 16.1324 40.6209 15.9739 40.6157 15.8907C40.6103 15.803 40.5778 15.725 40.4455 15.4741L40.4455 15.474C40.2882 15.1756 40.1265 15.0062 38.5681 14.0062C37.662 13.4247 37.1639 13.1269 36.8187 12.9828C36.6558 12.9149 36.5457 12.8897 36.4575 12.882C36.3696 12.8743 36.2776 12.8816 36.1436 12.909C36.0235 12.9336 35.8184 13.0158 35.6964 13.0864C35.6845 13.1002 35.6684 13.1195 35.6478 13.145C35.5902 13.2166 35.5105 13.3207 35.4099 13.4567C35.2094 13.7276 34.9365 14.1098 34.6099 14.5768C33.9573 15.51 33.0974 16.7718 32.1881 18.1366C30.7821 20.2467 29.9575 21.5008 29.478 22.2817C29.2378 22.6729 29.0922 22.9326 29.0047 23.1149C28.917 23.2973 28.9017 23.3741 28.8982 23.4047L29.3407 24.5239ZM29.3407 24.5239C29.0602 24.3316 28.8458 23.8709 28.8982 23.4048L29.3407 24.5239ZM16.0508 1.34757C16.2513 1.07621 16.3957 0.897409 16.5028 0.781M16.0508 1.34757L16.5028 0.781M16.5028 0.781C16.6013 0.674055 16.6469 0.643921 16.6528 0.639971M16.5028 0.781L16.6528 0.639971M16.6528 0.639971C16.6536 0.639463 16.6537 0.639388 16.6532 0.639637M16.6528 0.639971L16.6532 0.639637M16.6532 0.639637C16.8067 0.564141 17.0297 0.511375 17.2603 0.501611M16.6532 0.639637L17.2603 0.501611M17.2603 0.501611C17.5001 0.491455 17.6712 0.530699 17.7443 0.568916L17.2603 0.501611ZM28.2871 7.36465C29.2117 7.95306 29.8996 8.39156 30.4142 8.73769M28.2871 7.36465L30.4142 8.73769M30.4142 8.73769C30.9333 9.08687 31.2505 9.32541 31.4478 9.51336M30.4142 8.73769L31.4478 9.51336M31.4478 9.51336C31.6363 9.69296 31.6831 9.79637 31.7028 9.87187M31.4478 9.51336L31.7028 9.87187M31.7028 9.87187C31.7294 9.97373 31.7281 10.0976 31.7089 10.3897L31.7028 9.87187ZM22.2166 4.2458C22.2166 4.2458 22.216 4.24736 22.2146 4.25068C22.2158 4.24749 22.2165 4.24579 22.2166 4.2458ZM46.9727 33.4902C46.972 33.4667 46.9712 33.4439 46.9704 33.4217C46.9552 33.4234 46.9382 33.4245 46.9195 33.4245C46.6935 33.4245 46.5667 33.2835 46.5243 33.2273C46.5116 33.24 46.499 33.253 46.4864 33.2661C46.4792 33.2737 46.4718 33.2812 46.4642 33.2888C46.4717 33.4351 46.4777 33.6339 46.4818 33.8801C46.482 33.8948 46.4823 33.9096 46.4825 33.9246C46.6205 33.8243 46.7443 33.7197 46.8474 33.6121C46.8902 33.5674 46.9331 33.526 46.9727 33.4902ZM23.6661 27.3463C23.6693 27.3459 23.6727 27.3456 23.6761 27.3453C23.7678 27.3365 23.9054 27.3302 24.0642 27.3302C24.1053 27.3302 24.1532 27.3332 24.223 27.3463C24.2125 27.3249 24.2022 27.304 24.1922 27.2835C24.1438 27.185 24.101 27.0977 24.0642 27.0222C24.0287 26.9493 23.9987 26.8875 23.9744 26.8371C23.9734 26.835 23.9724 26.833 23.9714 26.8309C23.9622 26.831 23.9531 26.8312 23.944 26.8314C23.946 26.8479 23.9474 26.8676 23.9474 26.8892C23.9474 27.079 23.844 27.1999 23.792 27.2485C23.7393 27.2977 23.6891 27.3222 23.6706 27.3308C23.6672 27.3324 23.6639 27.3339 23.6607 27.3353C23.6625 27.3389 23.6643 27.3426 23.6661 27.3463ZM41.6572 46.5556C41.6572 46.5556 41.6572 46.5556 41.6572 46.5557L41.9361 46.9707L41.6572 46.5556ZM40.8227 47.8942L40.4046 47.6199C40.4046 47.62 40.4046 47.62 40.4045 47.62L40.8227 47.8942ZM39.2314 59.5L39.0781 59.4997L38.9509 59.5854L39.2303 60L39.2314 59.5ZM11.725 59.5316L11.5952 59.4389L11.4358 59.4386L11.4347 59.9386L11.725 59.5316ZM10.9499 58.6844L10.4828 58.8628L10.9499 58.6845L10.9499 58.6844ZM39.8279 58.8059C39.8279 58.806 39.8279 58.806 39.8279 58.806L40.259 59.0593L39.8279 58.8059ZM9.12148 11.7929C9.12147 11.793 9.12105 11.7935 9.12026 11.7944C9.12109 11.7934 9.12148 11.7929 9.12148 11.7929ZM35.7192 13.0615C35.7193 13.0615 35.7175 13.0633 35.7142 13.0665C35.7175 13.063 35.7191 13.0615 35.7192 13.0615ZM47.6575 19.8923L47.6575 19.8923C48.5393 20.4776 48.9591 20.7872 49.1743 21.0366C49.2684 21.1456 49.3107 21.2302 49.3351 21.3141C49.3623 21.4075 49.3755 21.5275 49.3755 21.7253C49.3755 21.874 49.3724 21.9303 49.3486 22.0118C49.3205 22.1079 49.2559 22.2581 49.0867 22.5499C48.7471 23.1353 48.0669 24.1578 46.6888 26.2251L47.1048 26.5024L46.6888 26.2251C45.1907 28.4725 44.453 29.5695 43.9699 30.1163C43.735 30.3823 43.6022 30.4676 43.5155 30.5033C43.4278 30.5394 43.3343 30.5493 43.0885 30.5493C43.0919 30.5493 43.0906 30.5491 43.0839 30.5479C43.0661 30.5446 43.0103 30.5344 42.9023 30.5031C42.7721 30.4654 42.6045 30.409 42.4081 30.3367C42.0165 30.1925 41.5331 29.9938 41.0485 29.78C40.564 29.5662 40.085 29.3402 39.7019 29.1425C39.5101 29.0434 39.3467 28.9538 39.2206 28.878C39.1576 28.8401 39.1072 28.8077 39.0689 28.7809C39.0498 28.7677 39.0353 28.7568 39.0246 28.7484C39.0222 28.7465 39.0202 28.7449 39.0184 28.7434C39.0119 28.7381 39.0093 28.7356 39.0094 28.7358C38.7288 28.4669 38.5806 28.0391 38.6221 27.7038C38.6265 27.6935 38.6342 27.6765 38.6466 27.6514C38.6784 27.5867 38.7274 27.4957 38.7953 27.3766C38.9304 27.1396 39.1283 26.8125 39.3847 26.4033C39.8967 25.5858 40.632 24.456 41.5404 23.0941C42.8591 21.1172 43.595 20.0266 44.0515 19.4081C44.5201 18.7733 44.6352 18.7255 44.6947 18.7009L44.6948 18.7008L44.5034 18.2389L44.6949 18.7008C44.9073 18.6128 45.0352 18.5739 45.1455 18.5627C45.2436 18.5527 45.3563 18.562 45.5315 18.6252C45.9245 18.7669 46.5022 19.1254 47.6575 19.8923Z" fill="#DBA73B" stroke="#DBA73B"/>
</svg>
