<svg width="38" height="38" viewBox="0 0 38 38" fill="none" xmlns="http://www.w3.org/2000/svg">
<path d="M13.4492 8.98633V16.2517C13.4508 16.3812 13.4268 16.5097 13.3787 16.63C13.3305 16.7502 13.2591 16.8597 13.1685 16.9523C13.0779 17.0448 12.97 17.1186 12.8509 17.1694C12.7317 17.2202 12.6037 17.247 12.4742 17.2483C12.2109 17.2467 11.9588 17.141 11.773 16.9543C11.5872 16.7677 11.4828 16.5151 11.4825 16.2517V8.98633H9.58284V16.2517C9.58284 16.8006 9.14958 17.2459 8.60665 17.2483C8.34328 17.2467 8.09121 17.141 7.90542 16.9543C7.71963 16.7677 7.61519 16.5151 7.61488 16.2517V8.98633H5.78955V18.4324H15.2506V8.98633H13.4492Z" fill="#DBA73B"/>
<path d="M33.0179 0H4.98172C2.23414 0 -0.000488281 2.23522 -0.000488281 4.98281V33.0172C-0.000488281 35.7654 2.23473 38 4.98172 38H33.0179C35.7649 38 38.0001 35.7654 38.0001 33.0172V4.98281C38.0001 2.23522 35.7655 0 33.0179 0ZM4.82472 19.3949V8.02283H7.61425V5.75285H7.31403L7.30923 5.20873H9.85727L9.86026 5.75285H9.58221V8.02283H11.4818V5.75285H11.1816L11.178 5.20873H13.7243L13.7285 5.75285H13.4492V8.02283H16.2136V19.3949H4.82472ZM15.2685 22.5021L22.2367 26.5273L21.5475 27.7222L14.5776 23.697L15.2685 22.5021ZM32.5804 32.8734H15.4453V30.0137H21.5326C25.6974 30.0137 29.0874 26.6255 29.0874 22.4607C29.0874 19.8276 27.7205 17.4485 25.5907 16.0906L22.1168 22.1071L21.3959 21.6907L20.3712 23.4639L18.5561 22.4158L19.5808 20.6438L18.8593 20.2273L27.1206 5.91645L27.6761 6.23705L28.5073 4.79824L30.6802 6.05308L29.8514 7.49429L30.3794 7.79871L27.0188 13.6157C30.0186 15.4764 31.9476 18.7891 31.9476 22.4619C31.9476 25.4432 30.6724 28.1141 28.6595 30.0149H32.581V32.8746L32.5804 32.8734Z" fill="#DBA73B"/>
</svg>
