<svg width="38" height="38" viewBox="0 0 38 38" fill="none" xmlns="http://www.w3.org/2000/svg">
<path d="M33.0184 0H4.98221C2.23462 0 0 2.23522 0 4.98281V33.0172C0 35.7654 2.23522 38 4.98221 38H33.0184C35.7654 38 38.0006 35.7654 38.0006 33.0172V4.98281C38.0006 2.23522 35.766 0 33.0184 0ZM4.82521 19.3949V8.02283H7.61474V5.75285H7.31451L7.30972 5.20873H9.85776L9.86075 5.75285H9.5827V8.02283H11.4823V5.75285H11.1821L11.1785 5.20873H13.7248L13.7289 5.75285H13.4497V8.02283H16.2141V19.3949H4.82521ZM15.269 22.5021L22.2372 26.5273L21.548 27.7222L14.5781 23.697L15.269 22.5021ZM32.5809 32.8734H15.4458V30.0137H21.5331C25.6979 30.0137 29.0879 26.6255 29.0879 22.4607C29.0879 19.8276 27.721 17.4485 25.5912 16.0906L22.1173 22.1071L21.3964 21.6907L20.3717 23.4639L18.5566 22.4158L19.5813 20.6438L18.8598 20.2273L27.1211 5.91645L27.6766 6.23705L28.5078 4.79824L30.6807 6.05308L29.8519 7.49429L30.3799 7.79871L27.0192 13.6157C30.0191 15.4764 31.9481 18.7891 31.9481 22.4619C31.9481 25.4432 30.6729 28.1141 28.66 30.0149H32.5815V32.8746L32.5809 32.8734Z" fill="#DBA73B"/>
</svg>
