<svg width="49" height="49" viewBox="0 0 49 49" fill="none" xmlns="http://www.w3.org/2000/svg">
<path d="M39.515 29.48C40.8236 27.024 41.5055 24.2829 41.5 21.5C41.5 12.111 33.889 4.5 24.5 4.5C15.111 4.5 7.50003 12.111 7.50003 21.5C7.49297 25.5103 8.91057 29.3928 11.5 32.455L11.52 32.48L11.538 32.5H11.5L21.588 43.21C21.962 43.607 22.4132 43.9233 22.9139 44.1394C23.4146 44.3556 23.9542 44.4672 24.4995 44.4672C25.0449 44.4672 25.5845 44.3556 26.0852 44.1394C26.5859 43.9233 27.0371 43.607 27.411 43.21L37.5 32.5H37.462L37.478 32.481L37.48 32.479C37.552 32.393 37.6237 32.3063 37.695 32.219C38.3888 31.3666 38.9984 30.45 39.515 29.48ZM24.505 27.999C22.9137 27.999 21.3876 27.3669 20.2624 26.2416C19.1372 25.1164 18.505 23.5903 18.505 21.999C18.505 20.4077 19.1372 18.8816 20.2624 17.7564C21.3876 16.6311 22.9137 15.999 24.505 15.999C26.0963 15.999 27.6224 16.6311 28.7477 17.7564C29.8729 18.8816 30.505 20.4077 30.505 21.999C30.505 23.5903 29.8729 25.1164 28.7477 26.2416C27.6224 27.3669 26.0963 27.999 24.505 27.999Z" fill="#DBA73B"/>
</svg>
