<svg width="21" height="21" viewBox="0 0 21 21" fill="none" xmlns="http://www.w3.org/2000/svg">
<g clip-path="url(#clip0_1079_2145)">
<path d="M17.1665 4.17188H3.83317C2.9165 4.17188 2.17484 4.92187 2.17484 5.83854L2.1665 15.8385C2.1665 16.7552 2.9165 17.5052 3.83317 17.5052H17.1665C18.0832 17.5052 18.8332 16.7552 18.8332 15.8385V5.83854C18.8332 4.92187 18.0832 4.17188 17.1665 4.17188ZM16.3332 15.8385H4.6665C4.20817 15.8385 3.83317 15.4635 3.83317 15.0052V7.50521L9.6165 11.1219C10.1582 11.4635 10.8415 11.4635 11.3832 11.1219L17.1665 7.50521V15.0052C17.1665 15.4635 16.7915 15.8385 16.3332 15.8385ZM10.4998 10.0052L3.83317 5.83854H17.1665L10.4998 10.0052Z" fill="white"/>
</g>
<defs>
<clipPath id="clip0_1079_2145">
<rect width="20" height="20" fill="white" transform="translate(0.5 0.838867)"/>
</clipPath>
</defs>
</svg>
