<svg width="41" height="41" viewBox="0 0 41 41" fill="none" xmlns="http://www.w3.org/2000/svg">
<path d="M38.6625 9.87507C38.4825 9.76276 38.277 9.69809 38.0651 9.68716C37.8533 9.67623 37.6421 9.71938 37.4516 9.81257C30.7438 13.0938 25.9531 11.5563 20.8891 9.93445C15.5625 8.23914 10.0625 6.48132 2.45156 10.1969C2.24137 10.2996 2.06419 10.4591 1.94017 10.6574C1.81615 10.8558 1.75026 11.0849 1.75 11.3188V30.0579C1.74997 30.27 1.8039 30.4786 1.90673 30.6641C2.00955 30.8496 2.15787 31.0058 2.33775 31.1182C2.51762 31.2306 2.72313 31.2953 2.93493 31.3064C3.14673 31.3174 3.35785 31.2744 3.54844 31.1813C10.2563 27.9001 15.0469 29.4376 20.1187 31.0594C23.125 32.0204 26.1875 33.0001 29.65 33.0001C32.3203 33.0001 35.2328 32.4188 38.5422 30.8032C38.7524 30.7006 38.9296 30.541 39.0536 30.3427C39.1776 30.1444 39.2435 29.9152 39.2438 29.6813V10.9423C39.2456 10.7296 39.1932 10.52 39.0915 10.3333C38.9898 10.1465 38.8422 9.98883 38.6625 9.87507ZM8 24.2501C8 24.5816 7.8683 24.8995 7.63388 25.134C7.39946 25.3684 7.08152 25.5001 6.75 25.5001C6.41848 25.5001 6.10054 25.3684 5.86612 25.134C5.6317 24.8995 5.5 24.5816 5.5 24.2501V14.2501C5.5 13.9186 5.6317 13.6006 5.86612 13.3662C6.10054 13.1318 6.41848 13.0001 6.75 13.0001C7.08152 13.0001 7.39946 13.1318 7.63388 13.3662C7.8683 13.6006 8 13.9186 8 14.2501V24.2501ZM20.5 25.5001C19.5111 25.5001 18.5444 25.2068 17.7221 24.6574C16.8999 24.108 16.259 23.3271 15.8806 22.4135C15.5022 21.4999 15.4031 20.4945 15.5961 19.5246C15.789 18.5547 16.2652 17.6638 16.9645 16.9645C17.6637 16.2653 18.5546 15.7891 19.5245 15.5961C20.4945 15.4032 21.4998 15.5022 22.4134 15.8807C23.327 16.2591 24.1079 16.9 24.6573 17.7222C25.2068 18.5445 25.5 19.5112 25.5 20.5001C25.5 21.8262 24.9732 23.0979 24.0355 24.0356C23.0979 24.9733 21.8261 25.5001 20.5 25.5001ZM35.5 26.7501C35.5 27.0816 35.3683 27.3995 35.1339 27.634C34.8995 27.8684 34.5815 28.0001 34.25 28.0001C33.9185 28.0001 33.6005 27.8684 33.3661 27.634C33.1317 27.3995 33 27.0816 33 26.7501V16.7501C33 16.4186 33.1317 16.1006 33.3661 15.8662C33.6005 15.6318 33.9185 15.5001 34.25 15.5001C34.5815 15.5001 34.8995 15.6318 35.1339 15.8662C35.3683 16.1006 35.5 16.4186 35.5 16.7501V26.7501Z" fill="#DBA73B"/>
</svg>
