<svg width="202" height="201" viewBox="0 0 202 201" fill="none" xmlns="http://www.w3.org/2000/svg">
<path fill-rule="evenodd" clip-rule="evenodd" d="M101 69.8836C84.0913 69.8836 70.3841 83.5908 70.3841 100.5C70.3841 117.408 84.0913 131.115 101 131.115C117.909 131.115 131.616 117.408 131.616 100.5C131.616 83.5908 117.909 69.8836 101 69.8836ZM71.7152 100.5C71.7152 84.326 84.8265 71.2147 101 71.2147C117.174 71.2147 130.285 84.326 130.285 100.5C130.285 116.673 117.174 129.784 101 129.784C84.8265 129.784 71.7152 116.673 71.7152 100.5Z" fill="url(#paint0_linear_437_7469)"/>
<path fill-rule="evenodd" clip-rule="evenodd" d="M101 64.8919C81.3345 64.8919 65.3924 80.834 65.3924 100.5C65.3924 120.165 81.3345 136.107 101 136.107C120.666 136.107 136.608 120.165 136.608 100.5C136.608 80.834 120.666 64.8919 101 64.8919ZM66.7235 100.5C66.7235 81.5691 82.0696 66.223 101 66.223C119.93 66.223 135.276 81.5691 135.276 100.5C135.276 119.43 119.93 134.776 101 134.776C82.0696 134.776 66.7235 119.43 66.7235 100.5Z" fill="url(#paint1_linear_437_7469)"/>
<path fill-rule="evenodd" clip-rule="evenodd" d="M60.4007 100.5C60.4007 78.0771 78.5776 59.9002 101 59.9002C123.422 59.9002 141.599 78.0771 141.599 100.5C141.599 122.922 123.422 141.099 101 141.099C78.5776 141.099 60.4007 122.922 60.4007 100.5ZM101 61.2313C79.3128 61.2313 61.7318 78.8123 61.7318 100.5C61.7318 122.187 79.3128 139.768 101 139.768C122.687 139.768 140.268 122.187 140.268 100.5C140.268 78.8123 122.687 61.2313 101 61.2313Z" fill="url(#paint2_linear_437_7469)"/>
<path fill-rule="evenodd" clip-rule="evenodd" d="M55.4089 100.5C55.4089 75.3203 75.8208 54.9085 101 54.9085C126.179 54.9085 146.591 75.3203 146.591 100.5C146.591 125.679 126.179 146.091 101 146.091C75.8208 146.091 55.4089 125.679 55.4089 100.5ZM101 56.2396C76.5559 56.2396 56.7401 76.0554 56.7401 100.5C56.7401 124.944 76.5559 144.759 101 144.759C125.444 144.759 145.26 124.944 145.26 100.5C145.26 76.0554 125.444 56.2396 101 56.2396Z" fill="url(#paint3_linear_437_7469)"/>
<path fill-rule="evenodd" clip-rule="evenodd" d="M50.4172 100.5C50.4172 72.5634 73.0639 49.9167 101 49.9167C128.936 49.9167 151.583 72.5634 151.583 100.5C151.583 128.436 128.936 151.082 101 151.082C73.0639 151.082 50.4172 128.436 50.4172 100.5ZM101 51.2479C73.7991 51.2479 51.7483 73.2986 51.7483 100.5C51.7483 127.7 73.7991 149.751 101 149.751C128.201 149.751 150.252 127.7 150.252 100.5C150.252 73.2986 128.201 51.2479 101 51.2479Z" fill="url(#paint4_linear_437_7469)"/>
<path fill-rule="evenodd" clip-rule="evenodd" d="M101 44.925C70.3071 44.925 45.4255 69.8066 45.4255 100.5C45.4255 131.192 70.3071 156.074 101 156.074C131.693 156.074 156.575 131.192 156.575 100.5C156.575 69.8066 131.693 44.925 101 44.925ZM46.7566 100.5C46.7566 70.5417 71.0422 46.2561 101 46.2561C130.958 46.2561 155.243 70.5417 155.243 100.5C155.243 130.457 130.958 154.743 101 154.743C71.0422 154.743 46.7566 130.457 46.7566 100.5Z" fill="url(#paint5_linear_437_7469)"/>
<path fill-rule="evenodd" clip-rule="evenodd" d="M40.4338 100.5C40.4338 67.0497 67.5502 39.9333 101 39.9333C134.45 39.9333 161.566 67.0497 161.566 100.5C161.566 133.949 134.45 161.066 101 161.066C67.5502 161.066 40.4338 133.949 40.4338 100.5ZM101 41.2644C68.2854 41.2644 41.7649 67.7849 41.7649 100.5C41.7649 133.214 68.2854 159.735 101 159.735C133.715 159.735 160.235 133.214 160.235 100.5C160.235 67.7849 133.715 41.2644 101 41.2644Z" fill="url(#paint6_linear_437_7469)"/>
<path fill-rule="evenodd" clip-rule="evenodd" d="M101 34.9416C64.7934 34.9416 35.4421 64.2929 35.4421 100.5C35.4421 136.706 64.7934 166.057 101 166.057C137.207 166.057 166.558 136.706 166.558 100.5C166.558 64.2929 137.207 34.9416 101 34.9416ZM36.7732 100.5C36.7732 65.028 65.5285 36.2727 101 36.2727C136.471 36.2727 165.227 65.028 165.227 100.5C165.227 135.971 136.471 164.726 101 164.726C65.5285 164.726 36.7732 135.971 36.7732 100.5Z" fill="url(#paint7_linear_437_7469)"/>
<path fill-rule="evenodd" clip-rule="evenodd" d="M30.4503 100.5C30.4503 61.536 62.0365 29.9498 101 29.9498C139.964 29.9498 171.55 61.536 171.55 100.5C171.55 139.463 139.964 171.049 101 171.049C62.0365 171.049 30.4503 139.463 30.4503 100.5ZM101 31.281C62.7717 31.281 31.7815 62.2712 31.7815 100.5C31.7815 138.728 62.7717 169.718 101 169.718C139.228 169.718 170.219 138.728 170.219 100.5C170.219 62.2712 139.228 31.281 101 31.281Z" fill="url(#paint8_linear_437_7469)"/>
<path fill-rule="evenodd" clip-rule="evenodd" d="M101 24.9581C59.2796 24.9581 25.4586 58.7792 25.4586 100.5C25.4586 142.22 59.2796 176.041 101 176.041C142.72 176.041 176.541 142.22 176.541 100.5C176.541 58.7792 142.72 24.9581 101 24.9581ZM26.7897 100.5C26.7897 59.5143 60.0148 26.2892 101 26.2892C141.985 26.2892 175.21 59.5143 175.21 100.5C175.21 141.485 141.985 174.71 101 174.71C60.0148 174.71 26.7897 141.485 26.7897 100.5Z" fill="url(#paint9_linear_437_7469)"/>
<path fill-rule="evenodd" clip-rule="evenodd" d="M20.4669 100.5C20.4669 56.0223 56.5228 19.9664 101 19.9664C145.477 19.9664 181.533 56.0223 181.533 100.5C181.533 144.977 145.477 181.033 101 181.033C56.5228 181.033 20.4669 144.977 20.4669 100.5ZM101 21.2975C57.2579 21.2975 21.798 56.7575 21.798 100.5C21.798 144.242 57.2579 179.702 101 179.702C144.742 179.702 180.202 144.242 180.202 100.5C180.202 56.7575 144.742 21.2975 101 21.2975Z" fill="url(#paint10_linear_437_7469)"/>
<path fill-rule="evenodd" clip-rule="evenodd" d="M101 14.9747C53.7659 14.9747 15.4752 53.2654 15.4752 100.5C15.4752 147.734 53.7659 186.024 101 186.024C148.234 186.024 186.525 147.734 186.525 100.5C186.525 53.2654 148.234 14.9747 101 14.9747ZM16.8063 100.5C16.8063 54.0006 54.5011 16.3058 101 16.3058C147.499 16.3058 185.194 54.0006 185.194 100.5C185.194 146.998 147.499 184.693 101 184.693C54.5011 184.693 16.8063 146.998 16.8063 100.5Z" fill="url(#paint11_linear_437_7469)"/>
<path fill-rule="evenodd" clip-rule="evenodd" d="M10.4834 100.5C10.4834 50.5086 51.0091 9.98296 101 9.98296C150.991 9.98296 191.517 50.5086 191.517 100.5C191.517 150.49 150.991 191.016 101 191.016C51.0091 191.016 10.4834 150.49 10.4834 100.5ZM101 11.3141C51.7442 11.3141 11.8146 51.2438 11.8146 100.5C11.8146 149.755 51.7442 189.685 101 189.685C150.256 189.685 190.185 149.755 190.185 100.5C190.185 51.2438 150.256 11.3141 101 11.3141Z" fill="url(#paint12_linear_437_7469)"/>
<path fill-rule="evenodd" clip-rule="evenodd" d="M101 4.99123C48.2522 4.99123 5.49172 47.7517 5.49172 100.5C5.49172 153.247 48.2522 196.008 101 196.008C153.748 196.008 196.508 153.247 196.508 100.5C196.508 47.7517 153.748 4.99123 101 4.99123ZM6.82285 100.5C6.82285 48.4869 48.9874 6.32236 101 6.32236C153.013 6.32236 195.177 48.4869 195.177 100.5C195.177 152.512 153.013 194.677 101 194.677C48.9874 194.677 6.82285 152.512 6.82285 100.5Z" fill="url(#paint13_linear_437_7469)"/>
<path fill-rule="evenodd" clip-rule="evenodd" d="M0.5 100.5C0.5 44.9949 45.4954 -0.000488281 101 -0.000488281C156.505 -0.000488281 201.5 44.9949 201.5 100.5C201.5 156.004 156.505 201 101 201C45.4954 201 0.5 156.004 0.5 100.5ZM101 1.33064C46.2305 1.33064 1.83113 45.7301 1.83113 100.5C1.83113 155.269 46.2305 199.668 101 199.668C155.769 199.668 200.169 155.269 200.169 100.5C200.169 45.7301 155.769 1.33064 101 1.33064Z" fill="url(#paint14_linear_437_7469)"/>
<defs>
<linearGradient id="paint0_linear_437_7469" x1="167.5" y1="29.9995" x2="23.5" y2="129" gradientUnits="userSpaceOnUse">
<stop stop-color="#DBA73B" stop-opacity="0.19"/>
<stop offset="1" stop-color="#DBA73B" stop-opacity="0"/>
</linearGradient>
<linearGradient id="paint1_linear_437_7469" x1="167.5" y1="29.9995" x2="23.5" y2="129" gradientUnits="userSpaceOnUse">
<stop stop-color="#DBA73B" stop-opacity="0.19"/>
<stop offset="1" stop-color="#DBA73B" stop-opacity="0"/>
</linearGradient>
<linearGradient id="paint2_linear_437_7469" x1="167.5" y1="29.9995" x2="23.5" y2="129" gradientUnits="userSpaceOnUse">
<stop stop-color="#DBA73B" stop-opacity="0.19"/>
<stop offset="1" stop-color="#DBA73B" stop-opacity="0"/>
</linearGradient>
<linearGradient id="paint3_linear_437_7469" x1="167.5" y1="29.9995" x2="23.5" y2="129" gradientUnits="userSpaceOnUse">
<stop stop-color="#DBA73B" stop-opacity="0.19"/>
<stop offset="1" stop-color="#DBA73B" stop-opacity="0"/>
</linearGradient>
<linearGradient id="paint4_linear_437_7469" x1="167.5" y1="29.9995" x2="23.5" y2="129" gradientUnits="userSpaceOnUse">
<stop stop-color="#DBA73B" stop-opacity="0.19"/>
<stop offset="1" stop-color="#DBA73B" stop-opacity="0"/>
</linearGradient>
<linearGradient id="paint5_linear_437_7469" x1="167.5" y1="29.9995" x2="23.5" y2="129" gradientUnits="userSpaceOnUse">
<stop stop-color="#DBA73B" stop-opacity="0.19"/>
<stop offset="1" stop-color="#DBA73B" stop-opacity="0"/>
</linearGradient>
<linearGradient id="paint6_linear_437_7469" x1="167.5" y1="29.9995" x2="23.5" y2="129" gradientUnits="userSpaceOnUse">
<stop stop-color="#DBA73B" stop-opacity="0.19"/>
<stop offset="1" stop-color="#DBA73B" stop-opacity="0"/>
</linearGradient>
<linearGradient id="paint7_linear_437_7469" x1="167.5" y1="29.9995" x2="23.5" y2="129" gradientUnits="userSpaceOnUse">
<stop stop-color="#DBA73B" stop-opacity="0.19"/>
<stop offset="1" stop-color="#DBA73B" stop-opacity="0"/>
</linearGradient>
<linearGradient id="paint8_linear_437_7469" x1="167.5" y1="29.9995" x2="23.5" y2="129" gradientUnits="userSpaceOnUse">
<stop stop-color="#DBA73B" stop-opacity="0.19"/>
<stop offset="1" stop-color="#DBA73B" stop-opacity="0"/>
</linearGradient>
<linearGradient id="paint9_linear_437_7469" x1="167.5" y1="29.9995" x2="23.5" y2="129" gradientUnits="userSpaceOnUse">
<stop stop-color="#DBA73B" stop-opacity="0.19"/>
<stop offset="1" stop-color="#DBA73B" stop-opacity="0"/>
</linearGradient>
<linearGradient id="paint10_linear_437_7469" x1="167.5" y1="29.9995" x2="23.5" y2="129" gradientUnits="userSpaceOnUse">
<stop stop-color="#DBA73B" stop-opacity="0.19"/>
<stop offset="1" stop-color="#DBA73B" stop-opacity="0"/>
</linearGradient>
<linearGradient id="paint11_linear_437_7469" x1="167.5" y1="29.9995" x2="23.5" y2="129" gradientUnits="userSpaceOnUse">
<stop stop-color="#DBA73B" stop-opacity="0.19"/>
<stop offset="1" stop-color="#DBA73B" stop-opacity="0"/>
</linearGradient>
<linearGradient id="paint12_linear_437_7469" x1="167.5" y1="29.9995" x2="23.5" y2="129" gradientUnits="userSpaceOnUse">
<stop stop-color="#DBA73B" stop-opacity="0.19"/>
<stop offset="1" stop-color="#DBA73B" stop-opacity="0"/>
</linearGradient>
<linearGradient id="paint13_linear_437_7469" x1="167.5" y1="29.9995" x2="23.5" y2="129" gradientUnits="userSpaceOnUse">
<stop stop-color="#DBA73B" stop-opacity="0.19"/>
<stop offset="1" stop-color="#DBA73B" stop-opacity="0"/>
</linearGradient>
<linearGradient id="paint14_linear_437_7469" x1="167.5" y1="29.9995" x2="23.5" y2="129" gradientUnits="userSpaceOnUse">
<stop stop-color="#DBA73B" stop-opacity="0.19"/>
<stop offset="1" stop-color="#DBA73B" stop-opacity="0"/>
</linearGradient>
</defs>
</svg>
