<svg width="643" height="154" viewBox="0 0 643 154" fill="none" xmlns="http://www.w3.org/2000/svg">
<path d="M40.2734 104.804C111.368 110.339 178.748 119.827 248.251 116.269C335.793 112.315 423.335 116.664 510.346 122.989C546.954 125.361 584.093 118.245 621.232 118.641C627.068 118.641 632.374 119.431 639.801 119.827C636.618 130.105 627.599 130.105 619.11 130.105C537.404 132.477 455.699 128.919 374.523 122.594C326.773 118.641 279.023 122.594 231.273 124.175C175.565 126.152 121.448 121.013 67.3317 114.292C47.1706 111.525 26.4789 111.525 5.78725 115.873C4.19558 107.571 2.60391 100.06 0.481689 91.3628C63.0873 89.7815 123.571 75.1543 187.768 83.4562C238.701 90.1768 290.165 81.0843 340.037 73.573C415.907 62.5037 491.246 65.2711 565.524 80.6889C586.746 85.0376 609.56 86.2235 631.843 83.0609C629.721 96.1068 628.129 96.8974 609.56 95.7115C576.665 92.9442 544.301 87.8049 512.999 80.6889C464.187 70.015 414.846 73.573 365.504 78.3169C331.548 81.4796 298.123 86.2235 264.698 92.5488C223.315 100.455 182.462 93.7348 142.14 89.3862C114.021 86.6189 86.9623 92.5488 58.8428 94.1301C58.8428 95.3161 58.8428 96.8975 58.8428 98.0834C78.4734 98.0834 98.1039 97.2928 117.735 98.0834C209.521 103.223 301.307 100.455 392.032 90.1768C429.701 85.8282 465.779 95.3161 502.387 98.8741C542.179 102.827 582.501 104.409 622.293 103.618C630.251 103.618 637.679 102.432 642.454 109.548C635.557 115.083 626.538 113.501 618.049 114.292C573.482 117.059 529.976 111.525 486.471 104.804C444.026 98.0834 401.582 100.06 358.607 103.223C312.979 106.385 266.29 105.595 220.132 107.967C161.771 110.339 102.879 99.2694 40.2734 104.804Z" fill="#121933"/>
<path d="M16.9954 36.4623C39.6905 27.3346 65.5524 28.0368 89.3032 24.5261C116.748 20.6644 145.249 20.6644 173.222 22.4198C209.112 24.8772 242.891 16.4517 276.67 11.1857C363.756 -2.15465 450.842 -2.15464 538.456 8.37724C557.457 10.8347 575.929 5.21768 597.041 8.02618C586.485 18.5581 572.235 20.3134 556.929 18.9091C500.455 12.9411 442.925 10.4836 385.924 8.37724C359.006 7.32405 332.616 11.8879 306.227 16.1006C258.197 23.824 211.224 32.6006 159.5 30.1431C116.221 28.0368 71.886 31.1963 29.1346 38.5686C25.4401 39.9729 21.7455 41.7282 16.9954 36.4623Z" fill="#121933"/>
<path d="M632.133 71.8555C608.287 78.1263 590.27 74.4376 573.843 70.38C460.443 42.7147 347.572 48.6166 234.701 72.5932C220.394 75.5442 206.616 78.1263 191.779 73.331C153.095 61.1582 116.002 70.38 78.3783 77.3885C72.5493 78.4952 66.7203 78.864 61.4212 80.7084C39.695 87.7169 20.6182 79.2329 0.481689 74.0687C2.07142 67.429 9.49014 67.7979 14.7892 70.0111C43.4043 82.1839 70.9596 72.2243 97.9849 67.0602C129.779 61.5271 159.454 57.1006 191.249 65.9535C210.856 71.4866 229.932 64.8469 247.949 60.7893C286.633 52.6742 325.316 46.7722 365.589 46.4034C426.528 46.0345 487.468 45.2967 547.878 54.1497C574.373 58.2072 600.868 62.2648 632.133 71.8555Z" fill="#121933"/>
<path d="M608.84 32.6333C611.491 40.5658 604.599 39.8103 599.297 41.699C567.486 53.4088 536.736 44.3431 507.047 38.6771C428.05 23.5676 350.115 25.0785 272.709 42.8322C235.597 51.5201 197.954 52.6534 159.252 48.4982C145.467 46.9873 132.213 46.2318 119.489 50.3869C88.7385 60.2081 55.3374 58.6972 22.4666 60.5858C19.2855 60.9636 15.5743 59.8304 10.8027 59.0749C18.7554 51.1424 29.889 51.5202 39.4322 51.8979C63.2901 53.0311 86.6178 50.3869 108.885 45.0986C129.032 40.5658 148.118 40.5658 168.265 42.4545C192.123 44.7209 215.45 42.8322 238.248 38.2993C297.627 26.5895 358.067 20.9234 419.568 19.4125C458.27 18.657 495.383 29.9891 534.085 34.522C558.473 37.5439 583.392 38.6771 608.84 32.6333Z" fill="#121933"/>
<path d="M632.133 134.197C631.075 142.22 625.254 141.838 618.374 141.838C551.695 140.692 485.016 145.276 418.337 149.096C338.429 154.063 257.462 158.647 178.611 140.692C129.396 129.613 79.122 130.377 28.3191 136.489C21.4395 137.253 14.0307 139.546 8.73877 132.287C46.3118 127.321 83.3556 122.354 121.458 125.793C157.443 128.849 191.841 136.107 226.768 141.456C280.746 149.86 334.724 143.748 388.702 142.22C469.67 140.31 549.578 131.141 632.133 134.197Z" fill="#121933"/>
</svg>
