<svg width="38" height="38" viewBox="0 0 38 38" fill="none" xmlns="http://www.w3.org/2000/svg">
<path d="M21.627 5.16992H22.3372V8.56525H21.627V5.16992ZM24.2212 11.6472H13.7344V26.0788H24.2212V11.6472ZM21.6546 24.9552L20.5502 22.9442L19.4428 24.9552H18.4133L20.0384 22.0123L18.0789 18.4438C17.977 18.4522 17.8848 18.4684 17.7769 18.4684H16.4861V22.2754H15.0144V13.062H17.9345C19.6993 13.062 20.4747 14.1712 20.4747 15.7454C20.4747 16.7803 20.0954 17.5875 19.3871 18.0459L20.8007 20.6323L21.8763 18.6835H22.898L21.3106 21.5647L23.1641 24.9552H21.6546Z" fill="#DBA73B"/>
<path d="M17.4307 14.1706H16.4863V17.358H17.5314C18.32 17.358 19.0032 16.9325 19.0032 15.7706C19.0032 14.7776 18.6047 14.1706 17.4307 14.1706ZM23.2147 5.16992H23.9212V8.56525H23.2147V5.16992ZM24.7979 5.16992H25.5068V8.56525H24.7979V5.16992Z" fill="#DBA73B"/>
<path d="M33.0185 0H4.98213C2.23459 0 0 2.23459 0 4.98333V33.0161C0 35.7642 2.23519 38 4.98213 38H33.0185C35.7654 38 38 35.7642 38 33.0161V4.98333C38 2.23519 35.7654 0 33.0185 0ZM25.5087 32.4839C25.5087 33.0227 25.0605 33.4631 24.5026 33.4631H13.4465C12.8898 33.4631 12.4386 33.0227 12.4386 32.4839V10.195H25.5087V32.4839ZM26.6724 8.73222C26.6724 9.01686 26.4387 9.24577 26.1469 9.24577H11.7986C11.6607 9.24737 11.5277 9.1942 11.429 9.09792C11.3302 9.00164 11.2737 8.87012 11.2718 8.73222V5.01269C11.2718 4.72925 11.5091 4.50154 11.7986 4.50154H26.1469C26.4387 4.50154 26.6724 4.72925 26.6724 5.01269V8.73222Z" fill="#DBA73B"/>
</svg>
