<svg width="39" height="38" viewBox="0 0 39 38" fill="none" xmlns="http://www.w3.org/2000/svg">
<path d="M22.1275 5.16992H22.8376V8.56525H22.1275V5.16992ZM24.7217 11.6472H14.2349V26.0788H24.7217V11.6472ZM22.1551 24.9552L21.0507 22.9442L19.9433 24.9552H18.9138L20.5389 22.0123L18.5794 18.4438C18.4775 18.4522 18.3852 18.4684 18.2774 18.4684H16.9866V22.2754H15.5149V13.062H18.435C20.1998 13.062 20.9752 14.1712 20.9752 15.7454C20.9752 16.7803 20.5959 17.5875 19.8876 18.0459L21.3012 20.6323L22.3768 18.6835H23.3985L21.8111 21.5647L23.6646 24.9552H22.1551Z" fill="#DBA73B"/>
<path d="M17.9307 14.1706H16.9863V17.358H18.0314C18.82 17.358 19.5032 16.9325 19.5032 15.7706C19.5032 14.7776 19.1047 14.1706 17.9307 14.1706ZM23.7147 5.16992H24.4212V8.56525H23.7147V5.16992ZM25.2979 5.16992H26.0068V8.56525H25.2979V5.16992Z" fill="#DBA73B"/>
<path d="M33.5185 0H5.48213C2.73459 0 0.5 2.23459 0.5 4.98333V33.0161C0.5 35.7642 2.73519 38 5.48213 38H33.5185C36.2654 38 38.5 35.7642 38.5 33.0161V4.98333C38.5 2.23519 36.2654 0 33.5185 0ZM26.0087 32.4839C26.0087 33.0227 25.5605 33.4631 25.0026 33.4631H13.9465C13.3898 33.4631 12.9386 33.0227 12.9386 32.4839V10.195H26.0087V32.4839ZM27.1724 8.73222C27.1724 9.01686 26.9387 9.24577 26.6469 9.24577H12.2986C12.1607 9.24737 12.0277 9.1942 11.929 9.09792C11.8302 9.00164 11.7737 8.87012 11.7718 8.73222V5.01269C11.7718 4.72925 12.0091 4.50154 12.2986 4.50154H26.6469C26.9387 4.50154 27.1724 4.72925 27.1724 5.01269V8.73222Z" fill="#DBA73B"/>
</svg>
