<svg width="40" height="49" viewBox="0 0 40 49" fill="none" xmlns="http://www.w3.org/2000/svg">
<path d="M30.2698 48.3523C29.4912 48.1276 28.703 47.2033 28.5408 46.3212C28.4356 45.7469 28.5691 45.3483 29.4009 43.7555C32.765 37.3205 34.2397 31.3981 34.2677 24.21C34.2948 17.263 33.0331 11.8577 29.8635 5.37932C29.1846 3.98888 28.628 2.69748 28.6287 2.51073C28.6314 1.82147 29.2153 0.821976 29.8429 0.429818C30.7043 -0.107528 32.1464 -0.0069667 32.8343 0.63797C33.0973 0.885859 33.7834 2.01251 34.356 3.14038C36.6219 7.60818 38.1679 12.51 38.9214 17.612C39.3879 20.7695 39.4597 26.7536 39.0648 29.6442C38.3412 34.9764 36.9078 39.7343 34.6278 44.3953C33.2481 47.2128 32.3873 48.3719 31.6661 48.3719C31.5219 48.3719 31.2885 48.4076 31.1472 48.4513C31.0028 48.4944 30.607 48.4501 30.2698 48.3523ZM20.9898 43.5079C19.7974 43.1613 18.9407 41.7 19.2887 40.6051C19.3726 40.3401 19.942 39.119 20.5514 37.8918C23.1281 32.6953 24.2147 27.1247 23.7143 21.6556C23.3053 17.1618 22.5061 14.3274 20.4845 10.1806C19.1297 7.3985 19.0669 6.96722 19.8661 5.84729C20.6283 4.78207 22.5133 4.60937 23.5011 5.51442C24.1861 6.14163 26.3017 10.5834 27.1174 13.099C29.8132 21.4239 29.361 30.3604 25.8336 38.5383C24.0281 42.7276 22.7647 44.0227 20.9898 43.5079ZM11.4216 38.5954C10.6833 38.2635 10.051 37.4853 9.88223 36.701C9.77668 36.2232 9.96287 35.6944 10.8444 33.9262C14.0921 27.4307 14.1503 21.1742 11.0263 14.83C9.65307 12.0433 9.62454 11.4888 10.7981 10.39C11.3802 9.84773 11.6231 9.75175 12.4363 9.75175C13.7959 9.75175 14.496 10.4321 15.7016 12.9178C17.5557 16.7409 18.3069 20.0576 18.2842 24.3069C18.2611 28.6747 17.5343 31.6729 15.5238 35.7045C14.37 38.0128 13.803 38.6223 12.6577 38.7785C12.3076 38.8262 11.7524 38.7437 11.4216 38.5954ZM2.49344 34.0191C1.90821 33.778 1.24534 32.9845 1.04855 32.2949C0.830591 31.524 1.01405 30.9121 1.89738 29.4731C3.03398 27.622 3.30179 26.6286 3.31122 24.2097C3.32065 21.7907 3.06059 20.797 1.93843 18.9459C1.55726 18.3184 1.17658 17.5665 1.08872 17.2752C0.731337 16.055 1.75607 14.5601 3.12889 14.3039C4.29287 14.0866 5.08878 14.6032 6.15029 16.2644C9.22504 21.0742 9.19998 27.4994 6.08789 32.2683C4.98878 33.951 3.76807 34.5455 2.49344 34.0191Z" fill="#121933"/>
</svg>
