<svg width="63" height="85" viewBox="0 0 63 85" fill="none" xmlns="http://www.w3.org/2000/svg">
<g clip-path="url(#clip0_437_7399)">
<rect x="1.5" y="1" width="60.05" height="82.5688" rx="8.25688" fill="url(#paint0_linear_437_7399)"/>
<path fill-rule="evenodd" clip-rule="evenodd" d="M62.8016 54.7535L50.55 41.6275L62.853 28.5015L61.8498 27.4279L49.2507 40.8684L42.4461 40.8684L42.4699 28.7237L42.4728 27.2056L42.5383 -6.19238L41.1183 -6.19238L41.0528 27.2056L21.1728 27.2056L21.2382 -6.19238L19.8182 -6.19238L19.7528 27.2056L19.7498 28.7237L19.726 40.8684L12.9199 40.8684L0.374417 27.4279L-0.631934 28.5015L11.6203 41.6275L-0.683364 54.7535L0.31878 55.8271L12.917 42.3865L19.723 42.3865L19.6992 54.5313L19.6963 56.0493L19.6308 89.4473L21.0508 89.4473L21.1163 56.0493L40.9963 56.0493L40.9309 89.4473L42.3509 89.4473L42.4178 55.2903C42.4186 54.871 42.1015 54.5313 41.7093 54.5313L21.1192 54.5313L21.1445 41.6275L21.1698 28.7237L41.0499 28.7237L41.0246 41.6275C41.0238 42.0468 41.3409 42.3865 41.7331 42.3865L49.2478 42.3865L61.7941 55.8271L62.8016 54.7535Z" fill="#121933"/>
</g>
<rect x="1.5" y="1" width="60.05" height="82.5688" rx="8.25688" stroke="#121933" stroke-width="1.23853"/>
<defs>
<linearGradient id="paint0_linear_437_7399" x1="1.98427" y1="1" x2="101.402" y2="87.7829" gradientUnits="userSpaceOnUse">
<stop stop-color="#F8ECC1"/>
<stop offset="1" stop-color="#DBA73B"/>
</linearGradient>
<clipPath id="clip0_437_7399">
<rect x="1.5" y="1" width="60.05" height="82.5688" rx="8.25688" fill="white"/>
</clipPath>
</defs>
</svg>
