<svg width="37" height="36" viewBox="0 0 37 36" fill="none" xmlns="http://www.w3.org/2000/svg">
<path d="M4.09996 16.2C4.55874 16.2005 5.00002 16.3762 5.33362 16.6911C5.66723 17.0061 5.86798 17.4365 5.89487 17.8945C5.92175 18.3525 5.77274 18.8035 5.47828 19.1553C5.18382 19.5071 4.76613 19.7332 4.31056 19.7874L4.09996 19.8H2.29996C1.84118 19.7995 1.3999 19.6238 1.0663 19.3089C0.732691 18.9939 0.531936 18.5635 0.505049 18.1055C0.478162 17.6475 0.627173 17.1965 0.921636 16.8447C1.2161 16.4929 1.63379 16.2668 2.08936 16.2126L2.29996 16.2H4.09996ZM18.5 0C18.9408 5.8159e-05 19.3664 0.161921 19.6958 0.454888C20.0253 0.747854 20.2358 1.15155 20.2874 1.5894L20.3 1.8V3.6C20.2994 4.05878 20.1238 4.50006 19.8088 4.83366C19.4939 5.16727 19.0634 5.36802 18.6054 5.39491C18.1475 5.4218 17.6965 5.27279 17.3447 4.97832C16.9928 4.68386 16.7667 4.26617 16.7126 3.8106L16.7 3.6V1.8C16.7 1.32261 16.8896 0.864773 17.2272 0.527208C17.5647 0.189642 18.0226 0 18.5 0ZM34.7 16.2C35.1587 16.2005 35.6 16.3762 35.9336 16.6911C36.2672 17.0061 36.468 17.4365 36.4949 17.8945C36.5218 18.3525 36.3727 18.8035 36.0783 19.1553C35.7838 19.5071 35.3661 19.7332 34.9106 19.7874L34.7 19.8H32.9C32.4412 19.7995 31.9999 19.6238 31.6663 19.3089C31.3327 18.9939 31.1319 18.5635 31.105 18.1055C31.0782 17.6475 31.2272 17.1965 31.5216 16.8447C31.8161 16.4929 32.2338 16.2668 32.6894 16.2126L32.9 16.2H34.7ZM5.70736 5.2074C6.01731 4.89748 6.42969 4.71131 6.86713 4.6838C7.30458 4.65629 7.73703 4.78935 8.08336 5.058L8.25256 5.2074L9.51256 6.4674C9.83539 6.79132 10.0228 7.22598 10.0368 7.68309C10.0507 8.1402 9.89017 8.58548 9.58771 8.9285C9.28525 9.27152 8.86357 9.48655 8.40831 9.52992C7.95304 9.57329 7.49834 9.44174 7.13656 9.162L6.96736 9.0126L5.70736 7.7526C5.36991 7.41505 5.18034 6.95729 5.18034 6.48C5.18034 6.0027 5.36991 5.54495 5.70736 5.2074ZM28.7474 5.2074C29.0713 4.88457 29.5059 4.69715 29.963 4.68319C30.4202 4.66923 30.8654 4.82979 31.2085 5.13225C31.5515 5.43471 31.7665 5.85639 31.8099 6.31165C31.8532 6.76691 31.7217 7.22161 31.442 7.5834L31.2926 7.7526L30.0326 9.0126C29.7086 9.33543 29.274 9.52285 28.8169 9.53681C28.3598 9.55077 27.9145 9.39021 27.5715 9.08775C27.2284 8.78529 27.0134 8.36361 26.97 7.90835C26.9267 7.45308 27.0582 6.99838 27.338 6.6366L27.4874 6.4674L28.7474 5.2074ZM22.1 28.8C22.5773 28.8 23.0352 28.9896 23.3727 29.3272C23.7103 29.6648 23.9 30.1226 23.9 30.6C23.9 32.0322 23.331 33.4057 22.3183 34.4184C21.3056 35.4311 19.9321 36 18.5 36C17.0678 36 15.6943 35.4311 14.6816 34.4184C13.6689 33.4057 13.1 32.0322 13.1 30.6C13.1 30.1591 13.2619 29.7336 13.5548 29.4041C13.8478 29.0747 14.2515 28.8642 14.6894 28.8126L14.9 28.8H22.1ZM18.5 7.2C20.7667 7.2 22.976 7.9132 24.8148 9.23858C26.6537 10.564 28.0289 12.4343 28.7457 14.5847C29.4625 16.7351 29.4846 19.0566 28.8087 21.2202C28.1328 23.3838 26.7933 25.28 24.98 26.64C24.7319 26.8263 24.4398 26.9454 24.1322 26.9856L23.9 27H13.1C12.7105 27 12.3315 26.8737 12.02 26.64C10.2066 25.28 8.86708 23.3838 8.19121 21.2202C7.51535 19.0566 7.53738 16.7351 8.25418 14.5847C8.97098 12.4343 10.3462 10.564 12.1851 9.23858C14.024 7.9132 16.2332 7.2 18.5 7.2Z" fill="#DBA73B"/>
</svg>
