<svg width="33" height="37" viewBox="0 0 33 37" fill="none" xmlns="http://www.w3.org/2000/svg">
<path d="M15.1426 0.840677C14.0457 1.04522 12.7569 1.4869 10.7766 2.1657L9.73936 2.51867C4.29627 4.38312 1.57564 5.31353 0.893216 6.28738C0.223466 7.23951 0.208984 10.0307 0.208984 15.5698L15.1426 10.5919V0.840677ZM15.1426 13.4519L0.208984 18.4298V18.7936C0.208984 28.9992 7.88216 33.9517 12.6971 36.0551C13.6203 36.4587 14.2176 36.7194 15.1426 36.8371V13.4519ZM17.8578 36.8389V13.4519L32.7915 18.4298V18.7936C32.7915 28.9992 25.1183 33.9517 20.3033 36.0551C19.3801 36.4587 18.7828 36.7212 17.8578 36.8389ZM17.8578 10.5919V0.838867C18.9548 1.04341 20.2436 1.48509 22.2239 2.16389L23.2611 2.51867C28.7042 4.38131 31.4248 5.31172 32.1072 6.28557C32.777 7.2377 32.7915 10.0289 32.7915 15.5661L17.8578 10.5919Z" fill="#DBA73B"/>
</svg>
