<svg width="39" height="38" viewBox="0 0 39 38" fill="none" xmlns="http://www.w3.org/2000/svg">
<path fill-rule="evenodd" clip-rule="evenodd" d="M24.0557 0.838867C24.5844 0.838867 25.0915 1.0489 25.4653 1.42276C25.8392 1.79662 26.0492 2.30368 26.0492 2.8324V5.99016H28.8003C29.8577 5.99016 30.8718 6.41023 31.6196 7.15795C32.3673 7.90567 32.7874 8.91979 32.7874 9.97723V12.731H36.0275C36.5562 12.731 37.0633 12.941 37.4372 13.3149C37.811 13.6887 38.021 14.1958 38.021 14.7245C38.021 15.2532 37.811 15.7603 37.4372 16.1341C37.0633 16.508 36.5562 16.718 36.0275 16.718H32.7847V21.8481H36.0275C36.5562 21.8481 37.0633 22.0581 37.4372 22.432C37.811 22.8058 38.021 23.3129 38.021 23.8416C38.021 24.3703 37.811 24.8774 37.4372 25.2512C37.0633 25.6251 36.5562 25.8351 36.0275 25.8351H32.7847V28.5809C32.7847 29.6383 32.3646 30.6525 31.6169 31.4002C30.8692 32.1479 29.8551 32.568 28.7976 32.568H26.0519V35.8453C26.0519 36.3741 25.8418 36.8811 25.468 37.255C25.0941 37.6288 24.587 37.8389 24.0583 37.8389C23.5296 37.8389 23.0225 37.6288 22.6487 37.255C22.2748 36.8811 22.0648 36.3741 22.0648 35.8453V32.568H16.9348V35.8453C16.9348 36.3741 16.7247 36.8811 16.3509 37.255C15.977 37.6288 15.4699 37.8389 14.9412 37.8389C14.4125 37.8389 13.9054 37.6288 13.5316 37.255C13.1577 36.8811 12.9477 36.3741 12.9477 35.8453V32.568H10.1966C9.13918 32.568 8.12506 32.1479 7.37734 31.4002C6.62962 30.6525 6.20955 29.6383 6.20955 28.5809V25.8325H2.97205C2.44333 25.8325 1.93627 25.6224 1.56241 25.2486C1.18855 24.8747 0.978516 24.3677 0.978516 23.8389C0.978516 23.3102 1.18855 22.8032 1.56241 22.4293C1.93627 22.0554 2.44333 21.8454 2.97205 21.8454H6.20955V16.7154H2.97205C2.44333 16.7154 1.93627 16.5053 1.56241 16.1315C1.18855 15.7576 0.978516 15.2506 0.978516 14.7218C0.978516 14.1931 1.18855 13.6861 1.56241 13.3122C1.93627 12.9383 2.44333 12.7283 2.97205 12.7283H6.20955V9.97989C6.20955 8.92245 6.62962 7.90832 7.37734 7.1606C8.12506 6.41288 9.13918 5.99282 10.1966 5.99282H12.9477V2.8324C12.9477 2.30368 13.1577 1.79662 13.5316 1.42276C13.9054 1.0489 14.4125 0.838867 14.9412 0.838867C15.4699 0.838867 15.977 1.0489 16.3509 1.42276C16.7247 1.79662 16.9348 2.30368 16.9348 2.8324V5.99016H22.0648V2.8324C22.0648 2.30368 22.2748 1.79662 22.6487 1.42276C23.0225 1.0489 23.5296 0.838867 24.0583 0.838867H24.0557ZM17.4876 12.8745C17.9555 10.7374 20.9963 10.7241 21.4827 12.8586L21.5039 12.9516L21.5465 13.1376C21.7963 14.2001 22.3527 15.1657 23.1466 15.9147C23.9404 16.6637 24.9368 17.163 26.012 17.3506C28.2448 17.7387 28.2448 20.939 26.012 21.3271C24.9305 21.516 23.929 22.0201 23.1331 22.7763C22.3372 23.5325 21.7824 24.5069 21.5385 25.5773L21.4827 25.8192C20.9963 27.9536 17.9555 27.9376 17.4876 25.8032L17.4398 25.5932C17.2048 24.5195 16.6553 23.54 15.8614 22.7797C15.0675 22.0195 14.0652 21.5128 12.9823 21.3244C10.7548 20.9364 10.7548 17.7414 12.9823 17.3533C14.0614 17.1654 15.0606 16.6615 15.8531 15.9054C16.6457 15.1492 17.1961 14.1749 17.4345 13.1058L17.469 12.9542L17.4876 12.8745Z" fill="#DBA73B"/>
</svg>
