<svg width="43" height="38" viewBox="0 0 43 38" fill="none" xmlns="http://www.w3.org/2000/svg">
<path d="M38.6001 34.2H42.4001V38H0.600098V34.2H4.4001V1.9C4.4001 1.39609 4.60028 0.912816 4.95659 0.556497C5.31291 0.200178 5.79619 0 6.3001 0H36.7001C37.204 0 37.6873 0.200178 38.0436 0.556497C38.3999 0.912816 38.6001 1.39609 38.6001 1.9V34.2ZM19.6001 11.4H15.8001V15.2H19.6001V19H23.4001V15.2H27.2001V11.4H23.4001V7.6H19.6001V11.4ZM25.3001 34.2H29.1001V22.8H13.9001V34.2H17.7001V26.6H25.3001V34.2Z" fill="#DBA73B"/>
</svg>
