<svg width="35" height="36" viewBox="0 0 35 36" fill="none" xmlns="http://www.w3.org/2000/svg">
<path d="M31.0691 21.6879L34.6273 27.8524C34.7737 28.1062 34.8564 28.3917 34.8682 28.6845C34.8801 28.9773 34.8207 29.2686 34.6953 29.5334C34.5698 29.7982 34.382 30.0286 34.1479 30.2049C33.9138 30.3812 33.6405 30.4981 33.3513 30.5455L33.1468 30.5654L32.9441 30.5636L27.6357 30.2197L25.2774 34.9906C25.1494 35.2489 24.9615 35.473 24.7295 35.6441C24.4975 35.8152 24.2279 35.9285 23.9433 35.9745C23.6587 36.0206 23.3672 35.998 23.0931 35.9087C22.8189 35.8194 22.57 35.666 22.3671 35.4612L22.2187 35.291L22.0884 35.0919L18.5265 28.9256C21.0339 28.7689 23.471 28.0339 25.6469 26.7783C27.8229 25.5226 29.6787 23.7804 31.0691 21.6879ZM16.4705 28.9256L12.9123 35.0937C12.7681 35.3436 12.5663 35.5555 12.3237 35.7116C12.0811 35.8678 11.8048 35.9638 11.5176 35.9916C11.2304 36.0194 10.9408 35.9782 10.6728 35.8714C10.4047 35.7647 10.1661 35.5955 9.97662 35.3779L9.83907 35.1969L9.72324 34.9906L7.36314 30.2215L2.05836 30.5654C1.76615 30.5842 1.47374 30.5319 1.20617 30.4129C0.938601 30.294 0.703849 30.112 0.522017 29.8825C0.340185 29.653 0.216693 29.3828 0.162118 29.0951C0.107542 28.8074 0.123509 28.5108 0.208651 28.2306L0.281047 28.037L0.371541 27.856L3.9334 21.6861C5.32281 23.7785 7.17758 25.5211 9.35257 26.7773C11.5276 28.0336 13.9637 28.7677 16.4705 28.9256ZM17.5021 0L17.9365 0.00723946C21.2195 0.119865 24.3304 1.50322 26.613 3.86551C28.8956 6.22779 30.1714 9.38431 30.1714 12.6692L30.1659 13.0185L30.1533 13.366L30.1207 13.8095L30.0736 14.2474L30.0302 14.5696C29.9111 15.3508 29.719 16.1192 29.4565 16.8645L29.2465 17.422L28.9696 18.0518C27.945 20.2345 26.3188 22.0796 24.2821 23.3703C22.2454 24.661 19.8828 25.3438 17.4715 25.3384C15.0603 25.3331 12.7006 24.6399 10.6697 23.3402C8.63868 22.0406 7.0207 20.1884 6.00572 18.0012L5.77044 17.4636L5.67633 17.2229L5.53153 16.8302L5.35959 16.298C5.29818 16.092 5.24206 15.8844 5.19127 15.6754L5.08268 15.185L4.994 14.6945L4.9578 14.4429L4.88721 13.8583L4.84378 13.1977L4.83292 12.6692C4.83286 9.38431 6.1087 6.22779 8.39129 3.86551C10.6739 1.50322 13.7848 0.119865 17.0678 0.00723946L17.5021 0Z" fill="#DBA73B"/>
</svg>
