<svg width="39" height="38" viewBox="0 0 39 38" fill="none" xmlns="http://www.w3.org/2000/svg">
<path d="M7.37744 11.92L8.41744 10.86C9.57744 9.7 11.4974 9.7 12.6974 10.94L12.7374 11C13.7174 12 15.0174 12.48 16.4374 12.62C18.3774 12.8 20.2574 13.84 21.4974 15.72C22.8574 17.88 22.8374 20.76 21.4174 22.9C20.8819 23.747 20.1616 24.4618 19.3106 24.991C18.4597 25.5202 17.5 25.8501 16.5035 25.9559C15.507 26.0617 14.4995 25.9407 13.5564 25.602C12.6132 25.2633 11.7589 24.7156 11.0574 24C9.93744 22.9 9.29744 21.48 9.13744 20C8.97744 18.54 8.39744 17.16 7.37744 16.14C6.21744 15 6.21744 13.08 7.37744 11.92ZM15.7774 28C13.4374 28 11.2574 27.1 9.63744 25.44C8.23744 24 7.35744 22.2 7.13744 20.24C7.07744 19.64 6.89744 18.86 6.41744 18.14C5.21744 19.8 4.49744 21.8 4.49744 24C4.49744 27.28 6.09744 30.18 8.55744 32H34.4974V30C34.4974 22.8 29.7174 16.7 23.1774 14.7C24.9574 17.5 24.9174 21.24 23.0974 24C21.4974 26.5 18.7374 28 15.7774 28ZM26.0574 11.12H28.5974C30.3374 11.12 31.8574 12.34 31.8574 14.52V16H34.3574V14C34.3574 11 31.6974 8.72 28.5974 8.72H26.0574C24.3974 8.72 22.9774 7.08 22.9774 5.4C22.9774 3.72 24.3974 2.48 26.0574 2.48V0C22.9774 0 20.4974 2.48 20.4974 5.56C20.4974 8.64 22.9774 11.12 26.0574 11.12ZM5.49744 11.1C5.61744 10.9 5.77744 10.7 5.95744 10.5L6.99744 9.46C7.17744 9.28 7.37744 9.14 7.57744 9L4.75744 6.14C5.03744 5.6 4.93744 4.9 4.49744 4.44C4.21104 4.16121 3.82713 4.00521 3.42744 4.00521C3.02775 4.00521 2.64384 4.16121 2.35744 4.44C2.07744 4.72 1.93744 5.06 1.91744 5.42C1.55744 5.44 1.21744 5.58 0.937441 5.86C0.357441 6.44 0.357441 7.4 0.937441 8C1.39744 8.44 2.07744 8.54 2.63744 8.26L5.49744 11.1ZM33.2774 4.78C34.2974 3.76 34.9374 2.38 34.9374 0.84H32.4374C32.4374 2.5 31.0374 3.9 29.3774 3.9V6.38C33.0974 6.38 36.0174 9.42 36.0174 13.14V18H38.4974V13.14C38.5074 11.3954 38.0222 9.6838 37.0982 8.20398C36.1742 6.72415 34.8493 5.53685 33.2774 4.78ZM6.49744 38H34.4974C36.7174 38 38.4974 36.22 38.4974 34H2.49744C2.49744 35.0609 2.91887 36.0783 3.66901 36.8284C4.41916 37.5786 5.43658 38 6.49744 38Z" fill="#DBA73B"/>
</svg>
