<svg width="15" height="17" viewBox="0 0 15 17" fill="none" xmlns="http://www.w3.org/2000/svg">
<path d="M13.0367 4.26041C12.9287 4.20456 12.8236 4.14333 12.7217 4.07696C12.4257 3.88123 12.1542 3.65062 11.9132 3.39009C11.3096 2.69967 11.0842 1.99929 11.0017 1.50938H11.0045C10.9355 1.10195 10.964 0.838867 10.969 0.838867H8.22078V11.464C8.22078 11.6062 8.22078 11.7477 8.21509 11.8871C8.21509 11.9041 8.21296 11.9198 8.21225 11.939C8.21225 11.9461 8.21225 11.9546 8.21012 11.9624V11.9688C8.18126 12.35 8.05916 12.7182 7.85458 13.041C7.65 13.3639 7.3692 13.6315 7.03689 13.8204C6.69021 14.0176 6.29808 14.1211 5.89922 14.1205C4.61934 14.1205 3.58122 13.0767 3.58122 11.7875C3.58122 10.4977 4.61934 9.45388 5.89922 9.45388C6.14169 9.45388 6.38273 9.49228 6.61311 9.56765L6.61667 6.76898C5.91701 6.67871 5.20623 6.73447 4.52921 6.93273C3.85218 7.13099 3.22361 7.46745 2.68317 7.92087C2.20951 8.33224 1.81128 8.82311 1.50639 9.3714C1.39049 9.5712 0.952486 10.3754 0.899868 11.6795C0.866449 12.4189 1.08901 13.1869 1.19495 13.5033V13.5104C1.26108 13.6967 1.5199 14.3338 1.94084 14.8706C2.28029 15.3015 2.68135 15.6801 3.13113 15.9941V15.987L3.13753 15.9941C4.46718 16.8971 5.9426 16.8381 5.9426 16.8381C6.19786 16.8274 7.05325 16.8381 8.02453 16.378C9.10177 15.8675 9.71469 15.1074 9.71469 15.1074C10.1066 14.6531 10.4182 14.1354 10.6362 13.5765C10.8851 12.9224 10.9675 12.1388 10.9675 11.8259V6.18805C11.001 6.20796 11.4454 6.50163 11.4454 6.50163C11.4454 6.50163 12.0853 6.9119 13.0829 7.17854C13.7982 7.36839 14.7631 7.40892 14.7631 7.40892V4.68064C14.4254 4.71761 13.7392 4.61096 13.036 4.26112" fill="white"/>
</svg>
