<svg width="42" height="38" viewBox="0 0 42 38" fill="none" xmlns="http://www.w3.org/2000/svg">
<path d="M37.6091 3.31245C36.3907 2.26962 34.9439 1.52832 33.3858 1.14855C31.8277 0.768785 30.202 0.761219 28.6405 1.12647C25.5011 1.81387 22.7572 3.70669 20.9998 6.39734C19.2519 3.71541 16.5243 1.82365 13.3999 1.12647C11.8453 0.753061 10.2256 0.743132 8.6666 1.09745C7.10759 1.45178 5.65127 2.1608 4.41082 3.16944C1.18292 5.98874 -0.594465 12.2402 1.42808 18.5735C1.65689 19.2721 1.93065 19.9545 2.24527 20.6164C2.32698 20.7696 2.40257 20.927 2.46999 21.0863C7.72043 31.7915 19.8557 37.4301 20.3869 37.6957C20.5835 37.7933 20.8007 37.8423 21.0202 37.8387C21.2394 37.84 21.4561 37.7911 21.6535 37.6957C22.1642 37.4709 34.4221 31.8732 39.6317 21.0454L39.7951 20.6981C40.1179 20.0035 40.3978 19.2864 40.6327 18.553C42.5531 12.4241 40.7961 6.17261 37.6091 3.31245ZM36.9758 19.5132C36.6898 20.1547 36.3629 20.7758 35.9952 21.3723H29.2329C28.8964 21.3706 28.5656 21.2858 28.2698 21.1254C27.9739 20.965 27.7223 20.734 27.5373 20.453L25.3921 17.2659L20.8363 26.3776C20.6924 26.6661 20.4823 26.9165 20.2231 27.1082C19.9639 27.3 19.6629 27.4276 19.3449 27.4808H19.0181C18.7478 27.4797 18.4804 27.4249 18.2314 27.3197C17.9824 27.2145 17.7568 27.061 17.5676 26.8679L12.0311 21.3519H6.08605C5.70984 20.6894 5.36887 20.0074 5.06457 19.3089C4.74866 18.651 4.48896 17.9676 4.28824 17.2659H12.8891C13.158 17.2643 13.4246 17.3158 13.6735 17.4174C13.9225 17.5191 14.1488 17.669 14.3397 17.8584L18.4256 21.9444L23.2879 12.2198C23.4495 11.8978 23.6933 11.6243 23.9947 11.427C24.2961 11.2297 24.6443 11.1155 25.004 11.0962C25.3591 11.0747 25.7136 11.1464 26.0325 11.304C26.3514 11.4617 26.6236 11.6999 26.8222 11.9951L30.2953 17.2251H37.8543C37.6318 18.013 37.3378 18.7789 36.9758 19.5132Z" fill="#DBA73B"/>
</svg>
