<svg width="45" height="36" viewBox="0 0 45 36" fill="none" xmlns="http://www.w3.org/2000/svg">
<path d="M21.0682 12.0682L16.8239 7.77272C16.4148 7.36363 16.2102 6.88636 16.2102 6.34091C16.2102 5.79545 16.4148 5.31818 16.8239 4.90909L21.0743 0.613636C21.4793 0.204545 21.9607 0 22.5184 0C23.0775 0 23.5657 0.204545 23.9829 0.613636L28.2273 4.90909C28.6364 5.31818 28.8409 5.79545 28.8409 6.34091C28.8409 6.88636 28.6364 7.36363 28.2273 7.77272L23.9768 12.0682C23.5718 12.4773 23.0904 12.6818 22.5327 12.6818C21.9736 12.6818 21.4854 12.4773 21.0682 12.0682ZM2.04545 36C1.46591 36 0.980454 35.8036 0.589091 35.4109C0.197727 35.0182 0.00136364 34.5327 0 33.9545V27.8182C0 26.6591 0.400909 25.6875 1.20273 24.9034C2.00454 24.1193 2.96727 23.7273 4.09091 23.7273H10.7898C11.4716 23.7273 12.1193 23.8977 12.733 24.2386C13.3466 24.5795 13.8409 25.0398 14.2159 25.6193C15.2045 26.9489 16.4236 27.9886 17.8732 28.7386C19.3227 29.4886 20.865 29.8636 22.5 29.8636C24.1704 29.8636 25.7304 29.4886 27.18 28.7386C28.6295 27.9886 29.8309 26.9489 30.7841 25.6193C31.2273 25.0398 31.7475 24.5795 32.3448 24.2386C32.942 23.8977 33.5639 23.7273 34.2102 23.7273H40.9091C42.0682 23.7273 43.0398 24.1193 43.8239 24.9034C44.6079 25.6875 45 26.6591 45 27.8182V33.9545C45 34.5341 44.8036 35.0202 44.4109 35.4129C44.0182 35.8057 43.5327 36.0014 42.9545 36H32.7273C32.1477 36 31.6623 35.8036 31.2709 35.4109C30.8795 35.0182 30.6832 34.5327 30.6818 33.9545V31.3466C29.4886 32.1989 28.2014 32.8466 26.82 33.2898C25.4386 33.7329 23.9986 33.9545 22.5 33.9545C21.0341 33.9545 19.6023 33.7248 18.2045 33.2652C16.8068 32.8057 15.5114 32.1491 14.3182 31.2954V33.9545C14.3182 34.5341 14.1218 35.0202 13.7291 35.4129C13.3364 35.8057 12.8509 36.0014 12.2727 36H2.04545ZM6.13636 21.6818C4.43182 21.6818 2.98295 21.0852 1.78977 19.892C0.596591 18.6989 0 17.25 0 15.5455C0 13.8068 0.596591 12.3498 1.78977 11.1743C2.98295 9.99886 4.43182 9.41045 6.13636 9.40909C7.875 9.40909 9.33272 9.9975 10.5095 11.1743C11.6864 12.3511 12.2741 13.8082 12.2727 15.5455C12.2727 17.25 11.685 18.6989 10.5095 19.892C9.33409 21.0852 7.87636 21.6818 6.13636 21.6818ZM38.8636 21.6818C37.1591 21.6818 35.7102 21.0852 34.517 19.892C33.3239 18.6989 32.7273 17.25 32.7273 15.5455C32.7273 13.8068 33.3239 12.3498 34.517 11.1743C35.7102 9.99886 37.1591 9.41045 38.8636 9.40909C40.6023 9.40909 42.06 9.9975 43.2368 11.1743C44.4136 12.3511 45.0014 13.8082 45 15.5455C45 17.25 44.4123 18.6989 43.2368 19.892C42.0614 21.0852 40.6036 21.6818 38.8636 21.6818Z" fill="#DBA73B"/>
</svg>
