<svg width="17" height="17" viewBox="0 0 17 17" fill="none" xmlns="http://www.w3.org/2000/svg">
<path d="M3.61395 2.61744C3.61372 3.08891 3.4262 3.54097 3.09265 3.87418C2.75911 4.2074 2.30685 4.39446 1.83538 4.39423C1.36391 4.39399 0.911848 4.20647 0.578635 3.87293C0.245423 3.53938 0.0583582 3.08713 0.058594 2.61566C0.0588297 2.14419 0.246346 1.69212 0.579893 1.35891C0.913439 1.0257 1.36569 0.838632 1.83716 0.838867C2.30863 0.839103 2.7607 1.02662 3.09391 1.36017C3.42712 1.69371 3.61419 2.14597 3.61395 2.61744ZM3.66728 5.7106H0.111924V16.8389H3.66728V5.7106ZM9.28475 5.7106H5.74717V16.8389H9.24919V10.9992C9.24919 7.74604 13.489 7.44383 13.489 10.9992V16.8389H16.9999V9.79037C16.9999 4.30623 10.7247 4.51066 9.24919 7.20385L9.28475 5.7106Z" fill="white"/>
</svg>
