<svg width="24" height="17" viewBox="0 0 24 17" fill="none" xmlns="http://www.w3.org/2000/svg">
<path d="M23.1148 3.33823C22.9848 2.85425 22.73 2.41289 22.3759 2.05832C22.0218 1.70375 21.5808 1.44841 21.0969 1.31785C19.316 0.838867 12.1772 0.838867 12.1772 0.838867C12.1772 0.838867 5.03834 0.838867 3.25745 1.3153C2.77343 1.44544 2.33216 1.70064 1.97798 2.05527C1.62379 2.40991 1.36914 2.85149 1.23962 3.33568C0.763183 5.11912 0.763184 8.83887 0.763184 8.83887C0.763184 8.83887 0.763183 12.5586 1.23962 14.3395C1.50204 15.3229 2.27656 16.0975 3.25745 16.3599C5.03834 16.8389 12.1772 16.8389 12.1772 16.8389C12.1772 16.8389 19.316 16.8389 21.0969 16.3599C22.0804 16.0975 22.8524 15.3229 23.1148 14.3395C23.5912 12.5586 23.5912 8.83887 23.5912 8.83887C23.5912 8.83887 23.5912 5.11912 23.1148 3.33823ZM9.90968 12.2529V5.42485L15.8205 8.81339L9.90968 12.2529Z" fill="white"/>
</svg>
