<svg width="41" height="36" viewBox="0 0 41 36" fill="none" xmlns="http://www.w3.org/2000/svg">
<path d="M33.8212 23.4719C34.515 21.7869 34.8917 19.983 34.8917 18.0008C34.8917 16.5735 34.6736 15.2057 34.297 13.937C33.0085 14.2344 31.6605 14.393 30.2531 14.393C27.3708 14.3961 24.53 13.7061 21.9701 12.3814C19.4103 11.0566 17.2065 9.13583 15.5445 6.78095C13.7682 11.084 10.4137 14.5449 6.16821 16.4546C6.08891 16.9501 6.08891 17.4854 6.08891 18.0008C6.08891 19.8933 6.46167 21.7673 7.18591 23.5157C7.91014 25.2642 8.97167 26.8529 10.3099 28.1911C13.0125 30.8937 16.6781 32.412 20.5002 32.412C22.5816 32.412 24.5837 31.9561 26.3876 31.1434C27.5175 33.3041 28.0329 34.3745 27.9933 34.3745C24.7423 35.4648 22.2248 36 20.5002 36C15.7031 36 11.1239 34.1168 7.75404 30.7271C5.70246 28.6852 4.17852 26.1748 3.3137 23.4124H0.677246V14.393H2.83795C3.49259 11.2065 4.99765 8.25659 7.19343 5.85639C9.38921 3.45619 12.1938 1.69519 15.3096 0.760241C18.4254 -0.174706 21.7362 -0.248721 24.8907 0.546051C28.0452 1.34082 30.9257 2.97473 33.2266 5.27441C35.7238 7.76334 37.4276 10.9364 38.1228 14.393H40.3232V23.4124H40.2042L33.1473 29.8945L22.6411 28.7051V25.3947H32.2156L33.8212 23.4719ZM15.0885 17.5448C15.6832 17.5448 16.2581 17.7827 16.6744 18.2188C17.0927 18.6406 17.3275 19.2106 17.3275 19.8046C17.3275 20.3987 17.0927 20.9687 16.6744 21.3905C16.2581 21.8068 15.6832 22.0446 15.0885 22.0446C13.8397 22.0446 12.8287 21.0535 12.8287 19.8046C12.8287 18.5558 13.8397 17.5448 15.0885 17.5448ZM25.8921 17.5448C27.1409 17.5448 28.132 18.5558 28.132 19.8046C28.132 21.0535 27.1409 22.0446 25.8921 22.0446C24.6432 22.0446 23.6322 21.0535 23.6322 19.8046C23.6322 19.2053 23.8703 18.6305 24.2941 18.2067C24.7179 17.7829 25.2927 17.5448 25.8921 17.5448Z" fill="#DBA73B"/>
</svg>
